<svg width="1440" height="695" viewBox="0 0 1440 695" fill="none" xmlns="http://www.w3.org/2000/svg"><path d="M1330 419l103.92 60v120L1330 659l-103.92-60V479L1330 419zm-330-192l103.92 60v120L1000 467l-103.923-60V287L1000 227zm220 384l103.92 60v120L1220 851l-103.92-60V671L1220 611zM890 419l103.923 60v120L890 659l-103.923-60V479L890 419zm550 192l103.92 60v120L1440 851l-103.92-60V671L1440 611zm-330-192l103.92 60v120L1110 659l-103.92-60V479L1110 419zM-26 432l-103.923-60V252L-26 192l103.923 60v120L-26 432zm330 192l-103.923-60V444L304 384l103.923 60v120L304 624zM84 240l-103.923-60V60L84 0l103.923 60v120L84 240zm330 192l-103.923-60V252L414 192l103.923 60v120L414 432zm-220 0L90.077 372V252L194 192l103.923 60v120L194 432z" fill="#0F053C"/></svg>