<svg width="32" height="37" viewBox="0 0 32 37" fill="none" xmlns="http://www.w3.org/2000/svg"><path d="M3.25 1a2.24 2.24 0 00-2.08 1.389 2.25 2.25 0 00-.17.863v21.955a2.25 2.25 0 001.387 2.083c.273.113.566.17.861.17h9.696v6.288a2.25 2.25 0 001.387 2.082c.274.113.566.17.862.17h13.559a2.24 2.24 0 002.078-1.39c.113-.273.17-.566.17-.862V11.792a2.25 2.25 0 00-1.388-2.081 2.24 2.24 0 00-.861-.17h-9.69V3.25a2.25 2.25 0 00-1.388-2.081 2.241 2.241 0 00-.861-.17H3.249z" stroke="#1C1825" stroke-width="1.042" stroke-linecap="round" stroke-linejoin="round"/><path d="M17.147 31.86l9.124-.047M6.35 7.938L21.687 25.21m0 0l.477-5.359m-.477 5.359l-5.111.526M19.5 9.54h-4.309a2.24 2.24 0 00-2.078 1.39c-.113.273-.17.566-.17.862V28" stroke="#1C1825" stroke-width="1.042" stroke-linecap="round" stroke-linejoin="round"/></svg>