<svg width="29" height="37" viewBox="0 0 29 37" fill="none" xmlns="http://www.w3.org/2000/svg"><path d="M26.722 35.63H16.393a43.696 43.696 0 005.362-5.208c4.59-5.276 7.023-10.826 7.023-16.033a14.389 14.389 0 00-28.778 0c0 5.207 2.432 10.757 7.023 16.033a44.944 44.944 0 005.362 5.208H2.055a.685.685 0 000 1.37h24.667a.685.685 0 000-1.37zM8.034 29.497C5.002 26.003 1.37 20.538 1.37 14.39a13.019 13.019 0 0126.037 0c0 6.15-3.614 11.614-6.663 15.108a41.55 41.55 0 01-6.355 5.961 42.391 42.391 0 01-6.355-5.96zM20.556 14.39a6.167 6.167 0 10-12.333 0 6.167 6.167 0 0012.333 0zm-10.963 0a4.797 4.797 0 114.796 4.796 4.813 4.813 0 01-4.796-4.796z" fill="#1C1825"/></svg>