<svg width="29" height="37" viewBox="0 0 29 37" fill="none" xmlns="http://www.w3.org/2000/svg">
<path d="M26.7222 35.6296H16.3931C18.3257 34.0501 20.1194 32.308 21.7546 30.4222C26.3454 25.1463 28.7778 19.5963 28.7778 14.3889C28.7778 10.5727 27.2618 6.91285 24.5634 4.21441C21.8649 1.51597 18.2051 0 14.3889 0C10.5727 0 6.91285 1.51597 4.21441 4.21441C1.51597 6.91285 8.04198e-08 10.5727 0 14.3889C0 19.5963 2.43241 25.1463 7.02315 30.4222C8.66267 32.3039 10.4561 34.0457 12.3847 35.6296H2.05556C1.87383 35.6296 1.69955 35.7018 1.57106 35.8303C1.44256 35.9588 1.37037 36.1331 1.37037 36.3148C1.37037 36.4965 1.44256 36.6708 1.57106 36.7993C1.69955 36.9278 1.87383 37 2.05556 37H26.7222C26.9039 37 27.0782 36.9278 27.2067 36.7993C27.3352 36.6708 27.4074 36.4965 27.4074 36.3148C27.4074 36.1331 27.3352 35.9588 27.2067 35.8303C27.0782 35.7018 26.9039 35.6296 26.7222 35.6296ZM8.0338 29.4972C5.00185 26.0028 1.37037 20.5384 1.37037 14.3889C1.37037 10.9362 2.74196 7.62485 5.18341 5.18341C7.62485 2.74196 10.9362 1.37037 14.3889 1.37037C17.8416 1.37037 21.1529 2.74196 23.5944 5.18341C26.0358 7.62485 27.4074 10.9362 27.4074 14.3889C27.4074 20.5384 23.7931 26.0028 20.744 29.4972C18.8404 31.7015 16.7103 33.6995 14.3889 35.4583C12.0714 33.6948 9.94181 31.6973 8.0338 29.4972ZM20.5556 14.3889C20.5556 13.1692 20.1939 11.977 19.5163 10.9629C18.8387 9.94877 17.8756 9.15837 16.7488 8.69163C15.622 8.22489 14.382 8.10277 13.1858 8.34071C11.9896 8.57865 10.8908 9.16597 10.0284 10.0284C9.16597 10.8908 8.57866 11.9896 8.34071 13.1858C8.10277 14.382 8.22489 15.622 8.69163 16.7488C9.15837 17.8756 9.94877 18.8387 10.9629 19.5163C11.977 20.1939 13.1692 20.5556 14.3889 20.5556C16.0244 20.5556 17.5929 19.9059 18.7494 18.7494C19.9059 17.5929 20.5556 16.0244 20.5556 14.3889ZM9.59259 14.3889C9.59259 13.4403 9.87389 12.513 10.4009 11.7242C10.9279 10.9355 11.677 10.3207 12.5534 9.95769C13.4298 9.59467 14.3942 9.49969 15.3246 9.68475C16.255 9.86982 17.1096 10.3266 17.7804 10.9974C18.4512 11.6682 18.908 12.5228 19.093 13.4532C19.2781 14.3836 19.1831 15.3479 18.8201 16.2244C18.4571 17.1008 17.8423 17.8498 17.0536 18.3769C16.2648 18.9039 15.3375 19.1852 14.3889 19.1852C13.1182 19.1807 11.9009 18.6739 11.0024 17.7754C10.1039 16.8769 9.59711 15.6596 9.59259 14.3889Z" fill="#1C1825"/>
</svg>
