<svg width="32" height="37" viewBox="0 0 32 37" fill="none" xmlns="http://www.w3.org/2000/svg">
<path d="M3.24911 1.00001C2.9536 0.99918 2.66083 1.05685 2.38765 1.1697C2.11446 1.28255 1.86623 1.44836 1.65723 1.6576C1.44823 1.86684 1.28257 2.11539 1.16978 2.38895C1.057 2.66252 0.999299 2.95571 1.00001 3.25167V25.2074C0.999181 25.5034 1.05676 25.7966 1.16944 26.0702C1.28212 26.3438 1.44768 26.5924 1.65659 26.8018C1.86551 27.0111 2.11367 27.177 2.38682 27.29C2.65996 27.4029 2.9527 27.4607 3.24822 27.46H12.9444V33.7483C12.9437 34.0442 13.0014 34.3373 13.1141 34.6108C13.2269 34.8844 13.3924 35.1329 13.6014 35.3421C13.8103 35.5513 14.0584 35.7171 14.3315 35.83C14.6046 35.943 14.8972 36.0007 15.1927 36H28.7518C29.0472 36.0006 29.3398 35.9428 29.6128 35.8298C29.8859 35.7169 30.1339 35.551 30.3428 35.3418C30.5517 35.1326 30.7173 34.8842 30.8301 34.6107C30.9428 34.3373 31.0006 34.0442 31 33.7483V11.7917C31.0006 11.4958 30.9428 11.2027 30.83 10.9292C30.7171 10.6558 30.5514 10.4073 30.3425 10.1982C30.1335 9.98904 29.8853 9.82331 29.6121 9.71051C29.339 9.59771 29.0463 9.54007 28.7509 9.5409H19.0609V3.25167C19.0615 2.95574 19.0037 2.6626 18.8909 2.38909C18.7781 2.11558 18.6124 1.86709 18.4034 1.65787C18.1945 1.44865 17.9463 1.28284 17.6732 1.16994C17.4 1.05705 17.1073 0.999299 16.8118 1.00001H3.24911Z" stroke="#1C1825" stroke-width="1.04167" stroke-linecap="round" stroke-linejoin="round"/>
<path d="M17.1473 31.8609L26.2709 31.8125M6.35156 7.93799L21.6858 25.21M21.6858 25.21L22.1634 19.8514M21.6858 25.21L16.5747 25.7359M19.5 9.53991H15.1912C14.8957 9.5392 14.6031 9.59696 14.33 9.70986C14.0569 9.82277 13.8088 9.9886 13.5999 10.1978C13.391 10.4071 13.2254 10.6556 13.1126 10.9291C12.9999 11.2026 12.9422 11.4957 12.943 11.7916V28" stroke="#1C1825" stroke-width="1.04167" stroke-linecap="round" stroke-linejoin="round"/>
</svg>
