<svg width="799" height="769" viewBox="0 0 799 769" fill="none" xmlns="http://www.w3.org/2000/svg"><path d="M569 336l103.923 60v120L569 576l-103.923-60V396L569 336zM459 144l103.923 60v120L459 384l-103.923-60V204L459 144zm-220 0l103.923 60v120L239 384l-103.923-60V204L239 144zm-220 0l103.923 60v120L19 384l-103.923-60V204L19 144zM349-49l103.923 60v120L349 191l-103.923-60V11L349-49zm110 578l103.923 60v120L459 769l-103.923-60V589L459 529zm220 0l103.923 60v120L679 769l-103.923-60V589L679 529zM129 336l103.923 60v120L129 576 25.077 516V396L129 336zm220 0l103.923 60v120L349 576l-103.923-60V396L349 336z" fill="#0F053C"/></svg>