<svg width="1440" height="1535" viewBox="0 0 1440 1535" fill="none" xmlns="http://www.w3.org/2000/svg"><path d="M569 336l103.923 60v120L569 576l-103.923-60V396L569 336zM459 144l103.923 60v120L459 384l-103.923-60V204L459 144zm-220 0l103.923 60v120L239 384l-103.923-60V204L239 144zm-220 0l103.923 60v120L19 384l-103.923-60V204L19 144zM349-49l103.923 60v120L349 191l-103.923-60V11L349-49zm110 578l103.923 60v120L459 769l-103.923-60V589L459 529zm220 0l103.923 60v120L679 769l-103.923-60V589L679 529zM129 336l103.923 60v120L129 576 25.077 516V396L129 336zm220 0l103.923 60v120L349 576l-103.923-60V396L349 336zm561 815l-103.923-60V971L910 911l103.92 60v120L910 1151zm111 191l-103.923-60v-120L1021 1102l103.92 60v120L1021 1342zm224 0l-103.92-60v-120l103.92-60 103.92 60v120L1245 1342zm-110 193l-103.92-60v-120l103.92-60 103.92 60v120L1135 1535zm333-193l-103.92-60v-120l103.92-60 103.92 60v120L1468 1342zm-446-383l-103.923-60V779L1022 719l103.92 60v120L1022 959zm334 192l-103.92-60V971L1356 911l103.92 60v120L1356 1151zM798 959l-103.923-60V779L798 719l103.923 60v120L798 959zm335 192l-103.92-60V971L1133 911l103.92 60v120L1133 1151z" fill="#0F053C"/></svg>