<svg width="51" height="50" viewBox="0 0 51 50" fill="none" xmlns="http://www.w3.org/2000/svg">
<path d="M2.35148 33.0599C1.07255 29.3735 0.693922 25.4347 1.24719 21.5722C1.80045 17.7097 3.26957 14.0356 5.53191 10.8564C7.79425 7.67733 10.7842 5.08545 14.2522 3.29714C17.7202 1.50883 21.5656 0.57597 25.4675 0.576416C29.3695 0.576863 33.2147 1.5106 36.6823 3.29971C40.1498 5.08881 43.1392 7.68137 45.4008 10.861C47.6624 14.0407 49.1307 17.7151 49.6831 21.5777C50.2354 25.4404 49.8559 29.3791 48.5761 33.0652" stroke="#1C1825" stroke-width="1.04167" stroke-linecap="round" stroke-linejoin="round"/>
<path d="M19.157 46.7412C16.927 48.6077 14.0497 49.5172 11.1521 49.2716C8.25449 49.0259 5.57137 47.6451 3.68737 45.4299C1.80338 43.2147 0.871188 40.3447 1.09393 37.4453C1.31666 34.5458 2.67627 31.8519 4.87651 29.9504L19.157 46.7412ZM31.7722 46.7412C32.8729 47.6924 34.1509 48.4163 35.5327 48.8711C36.9144 49.326 38.3725 49.5028 39.8229 49.3913C41.2734 49.2799 42.6874 48.8825 43.9834 48.2219C45.2795 47.5614 46.432 46.6508 47.3744 45.5427C48.3169 44.4346 49.0306 43.1509 49.4745 41.7656C49.9185 40.3803 50.0837 38.9208 49.9609 37.4713C49.838 36.0218 49.4294 34.611 48.7586 33.3202C48.0879 32.0294 47.1682 30.8841 46.0527 29.9504L31.7722 46.7412Z" stroke="#1C1825" stroke-width="1.04167" stroke-linecap="round" stroke-linejoin="round"/>
</svg>
