<svg width="55" height="56" viewBox="0 0 55 56" fill="none" xmlns="http://www.w3.org/2000/svg">
<path d="M26.8161 28.778C41.8293 28.778 54 16.6073 54 1.59406L54 0.961861L26.8161 0.961861L26.8161 28.778Z" fill="#F7F8FC"/>
<path d="M-1.62958e-07 1.59412C1.14954e-06 16.6074 12.1707 28.778 27.1839 28.778L27.1839 0.961923L-2.18226e-07 0.961926L-1.62958e-07 1.59412Z" fill="#F7F8FC"/>
<path d="M27.1836 55.9619C27.1836 40.9487 39.3542 28.778 54.3675 28.778L54.9997 28.778L54.9997 55.9619L27.1836 55.9619Z" fill="#F7F8FC"/>
<path d="M-0.000314713 28.778C15.0129 28.778 27.1836 40.9487 27.1836 55.9619L-0.000313524 55.9619L-0.000314713 28.778Z" fill="#F7F8FC"/>
</svg>
