<svg width="192" height="74" viewBox="0 0 192 74" fill="none" xmlns="http://www.w3.org/2000/svg"><path d="M70.177 71.372H0V2.992L73.304 0l-3.127 71.372z" fill="#8B8C8C"/><path d="M7.005 13.202v2.464h.174l1.802-2.464h1.3l-2.133 2.59c.857.154 1.212.701 1.48 1.421.217.607.403 1.181.662 1.732H9.154a9.674 9.674 0 01-.488-1.303c-.239-.7-.554-1.18-1.394-1.18h-.25v2.503h-1.06v-5.763h1.043zm4.602 0l.993 2.216c.158.374.283.713.404 1.055h.029c.085-.264.19-.63.331-1.082l.768-2.189h1.135l-1.16 2.862a10.141 10.141 0 01-1.139 2.24 1.778 1.778 0 01-.64.542 1.829 1.829 0 01-.826.194 1.506 1.506 0 01-.55-.079l.085-.842c.12.025.244.036.368.031.216-.018.421-.096.592-.226.171-.13.3-.306.37-.506a.3.3 0 00-.025-.307l-1.968-3.909h1.233zm8.455 0v5.743h-1.075v-4.88h-1.615v1.53c0 1.382-.134 2.626-.998 3.15a2.11 2.11 0 01-1.05.279l-.13-.842a1.25 1.25 0 00.646-.307c.404-.394.473-1.303.473-2.197v-2.472l3.75-.004zm2.295 0v2.063c.241-.03.484-.044.727-.043 1.232 0 2.307.555 2.307 1.83a1.672 1.672 0 01-.465 1.244c-.525.531-1.442.708-2.307.708-.444.002-.888-.024-1.329-.078v-5.724h1.067zm0 4.968c.182.025.365.037.55.035.735 0 1.357-.35 1.357-1.102 0-.752-.622-1.063-1.346-1.063a3.674 3.674 0 00-.561.036v2.094zm5.098-4.09H25.78v-.878h4.443v.878h-1.676v4.865h-1.09V14.08zm4.08-.878l.994 2.216c.158.374.279.713.404 1.055h.057c.085-.264.19-.63.331-1.082l.768-2.189h1.139l-1.164 2.862c-.284.788-.666 1.54-1.135 2.24a1.798 1.798 0 01-.644.54 1.849 1.849 0 01-.826.196 1.506 1.506 0 01-.55-.079l.085-.842c.12.025.244.036.368.031.216-.018.422-.096.592-.226.171-.13.3-.306.37-.506a.3.3 0 00-.025-.307l-1.968-3.909h1.204zm4.25.075a9.709 9.709 0 011.645-.118 2.718 2.718 0 011.74.468 1.609 1.609 0 01.579 1.272c.011.24-.028.479-.116.703a1.745 1.745 0 01-.394.6 2.641 2.641 0 01-1.862.614 2.895 2.895 0 01-.525-.036v2.165h-1.067v-5.668zm1.067 2.677c.172.036.349.05.525.043.808 0 1.293-.394 1.293-1.055 0-.661-.453-.98-1.212-.98a2.903 2.903 0 00-.622.051l.016 1.94zm4.892-2.752v2.295h2.493v-2.299h1.075v5.743h-1.075v-2.53h-2.493v2.53h-1.078v-5.739h1.078zm10.019 2.811c0 1.928-1.212 3.027-2.828 3.027-1.616 0-2.707-1.236-2.707-2.925 0-1.763 1.136-3.007 2.796-3.007 1.741 0 2.74 1.267 2.74 2.905zm-4.395.086c0 1.181.602 2.094 1.616 2.094 1.014 0 1.616-.936 1.616-2.137 0-1.082-.55-2.106-1.616-2.106-1.067 0-1.616.965-1.616 2.15zm7.187.213v.724h-2.23v-.724h2.23zM5.947 25.83a8.888 8.888 0 011.563-.122 2.89 2.89 0 011.689.366 1.201 1.201 0 01.61 1.074 1.313 1.313 0 01-.282.777 1.37 1.37 0 01-.696.467c.337.067.64.245.856.505.217.26.334.585.332.92.003.226-.046.45-.144.654a1.502 1.502 0 01-.422.527c-.404.358-1.11.535-2.19.535-.44.001-.88-.024-1.316-.074v-5.63zm1.066 2.263h.55c.743 0 1.163-.338 1.163-.826 0-.489-.404-.788-1.103-.788a2.808 2.808 0 00-.61.044v1.57zm0 2.641c.188.02.377.03.566.028.695 0 1.305-.256 1.305-.965 0-.708-.594-.917-1.346-.917h-.525v1.854zm5.03-4.983v2.07c.226-.036.454-.053.683-.05 1.212 0 2.298.562 2.298 1.85.018.451-.15.891-.464 1.224-.525.531-1.443.708-2.275.708-.437 0-.874-.024-1.309-.075v-5.727h1.067zm0 4.968c.174.025.35.035.525.031.699 0 1.33-.362 1.33-1.106 0-.744-.696-1.055-1.33-1.055-.175 0-.35.01-.525.032v2.098zm4.65-4.968v5.743h-1.075v-5.743h1.075zm5.534 5.574c-.482.187-1 .274-1.518.256-1.875 0-3.01-1.142-3.01-2.89 0-1.893 1.35-3.034 3.147-3.034.491-.018.98.07 1.434.255l-.234.835a2.958 2.958 0 00-1.156-.22c-1.212 0-2.064.732-2.064 2.113 0 1.26.763 2.07 2.056 2.07.401.006.8-.067 1.172-.212l.174.827zm2.041-4.696H22.59v-.878h4.444v.878h-1.697v4.865h-1.074l.004-4.865zm4.637 3.235l-.509 1.63h-1.11l1.89-5.743h1.39l1.915 5.743h-1.156l-.533-1.63h-1.887zm1.69-.787l-.465-1.413c-.114-.35-.21-.74-.3-1.075-.088.335-.173.733-.278 1.075l-.457 1.413h1.5zm2.685-3.247a8.889 8.889 0 011.564-.122 2.89 2.89 0 011.689.366 1.201 1.201 0 01.61 1.074 1.313 1.313 0 01-.282.777 1.37 1.37 0 01-.696.467c.337.067.64.245.856.505.217.26.334.585.332.92.003.226-.046.45-.144.654a1.502 1.502 0 01-.422.527c-.404.358-1.11.535-2.19.535-.44.001-.88-.024-1.316-.074v-5.63zm1.067 2.263h.55c.743 0 1.163-.338 1.163-.826 0-.489-.404-.788-1.103-.788a2.808 2.808 0 00-.61.044v1.57zm0 2.641c.188.02.377.03.566.028.69 0 1.305-.256 1.305-.965 0-.708-.594-.936-1.338-.936h-.533v1.873zm9.191-2.173c0 1.93-1.212 3.027-2.828 3.027-1.616 0-2.71-1.236-2.71-2.924 0-1.764 1.135-3.007 2.795-3.007 1.729 0 2.743 1.255 2.743 2.904zm-4.4.087c0 1.181.607 2.094 1.637 2.094s1.616-.937 1.616-2.137c0-1.083-.554-2.106-1.616-2.106-1.063 0-1.636.964-1.636 2.15zm6.343-2.897v1.728a.945.945 0 00.274.81.998.998 0 00.825.284c.35-.006.694-.098.998-.267V25.75h1.074v5.743h-1.066V29.09h-.024a2.793 2.793 0 01-1.366.327c-.937 0-1.79-.453-1.79-1.756v-1.909h1.075zm5.482 0v2.303h2.493V25.75h1.075v5.743h-1.075v-2.531h-2.493v2.531H49.89V25.75h1.074zm5.862 0v2.07a4.09 4.09 0 01.679-.05c1.212 0 2.303.562 2.303 1.85.017.451-.15.891-.465 1.224-.525.531-1.442.708-2.274.708-.438 0-.875-.024-1.31-.075v-5.727h1.067zm0 4.968c.173.025.347.035.521.031.703 0 1.334-.362 1.334-1.106 0-.744-.691-1.055-1.334-1.055-.174 0-.348.01-.52.032v2.098zm4.65-4.968v5.743H60.4v-5.743h1.075zm2.311 0v2.027c0 .913-.028 1.756-.073 2.523.307-.65.695-1.338 1.079-1.968l1.555-2.574h1.095v5.743h-.998v-2.035c0-.905 0-1.638.077-2.362a16.166 16.166 0 01-1.05 1.968l-1.487 2.429h-1.212V25.75h1.014zm.873-1.26c.024.296.12.52.456.52.335 0 .436-.212.46-.52h.764c-.056.654-.48.988-1.244.988s-1.135-.35-1.212-.988h.776zM7.021 38.3v4.88h2.352V38.3h1.074v4.908l.562.024-.06 2.232h-.833l-.06-1.421h-4.11V38.3h1.075zm8.116 3.196h-2.222v1.685H15.4v.862h-3.56V38.3h3.427v.862h-2.351v1.48h2.221v.854zm2.275-3.196v2.299h2.493v-2.3h1.074v5.744h-1.074v-2.531h-2.493v2.53h-1.075V38.3h1.075zm5.922.878h-1.656V38.3h4.444v.878h-1.697v4.865h-1.09v-4.865zm3.459-.799a9.227 9.227 0 011.644-.122 2.714 2.714 0 011.725.464 1.597 1.597 0 01.578 1.272c.012.24-.027.479-.114.703a1.727 1.727 0 01-.396.6 2.641 2.641 0 01-1.862.613 2.859 2.859 0 01-.521-.035v2.165H26.78l.013-5.66zm1.066 2.672c.171.036.346.05.521.044.808 0 1.297-.394 1.297-1.055 0-.662-.456-.98-1.212-.98a2.904 2.904 0 00-.622.05l.016 1.941z" fill="#fff"/><path d="M80.507 13.592a34.865 34.865 0 015.62-.374c2.565 0 4.39.48 5.619 1.437a5.26 5.26 0 011.473 1.854c.34.719.51 1.503.494 2.294a5.6 5.6 0 01-.393 2.297 5.718 5.718 0 01-1.3 1.955c-1.421 1.303-3.518 1.885-5.974 1.885a11.01 11.01 0 01-1.418-.079v6.405h-4.121V13.592zm4.12 8.132c.459.085.925.12 1.39.107 2.21 0 3.576-1.09 3.576-2.925 0-1.645-1.176-2.63-3.232-2.63a7.042 7.042 0 00-1.717.162l-.016 5.286zm14.136-8.372l2.671 6.298c.493 1.275.872 2.338 1.28 3.428h.085c.247-.787.546-1.968 1.006-3.483l1.996-6.247h4.351l-3.434 8.691c-1.119 2.795-2.267 5.51-3.636 7.152a5.916 5.916 0 01-2.15 1.76 6.08 6.08 0 01-2.738.602 5.718 5.718 0 01-2.044-.295l.298-3.244c.448.1.907.145 1.366.134a2.724 2.724 0 001.505-.463c.443-.298.783-.72.975-1.21a.827.827 0 00-.052-.826l-6.193-12.305 4.714.008zm25.646 17.41c-.764.37-2.481.787-4.719.787-6.359 0-9.631-3.853-9.631-8.959 0-6.113 4.476-9.514 10.039-9.514 2.157 0 3.793.421 4.529.787l-.845 3.209a9.087 9.087 0 00-3.49-.67c-3.301 0-5.866 1.945-5.866 5.932 0 3.586 2.181 5.846 5.89 5.846 1.182 0 2.354-.199 3.466-.587l.627 3.169zm15.198 0c-.764.37-2.481.787-4.719.787-6.355 0-9.631-3.853-9.631-8.959 0-6.113 4.476-9.514 10.039-9.514 2.157 0 3.789.421 4.529.787l-.845 3.209a9.089 9.089 0 00-3.494-.67c-3.301 0-5.866 1.945-5.866 5.932 0 3.586 2.186 5.846 5.894 5.846 1.182 0 2.354-.199 3.466-.587l.627 3.169zm6.403-17.41v7.443h.355l5.074-7.443h5.046l-6.411 7.947c2.375.587 3.438 2.18 4.201 4.33a48.246 48.246 0 002.129 5.633h-4.476a27.352 27.352 0 01-1.418-3.936c-.626-2.02-1.474-3.543-3.708-3.543h-.808v7.479h-4.121v-17.91h4.137zm16.067 0v5.314c0 2.87-.053 5.715-.219 8.108h.113a80.253 80.253 0 013.273-6.376l3.951-7.046h4.258v17.914h-3.818v-5.287c-.032-2.52.068-5.04.299-7.55h-.081a52.018 52.018 0 01-3.11 6.377l-3.737 6.46h-4.747V13.352h3.818zm18.547 0v5.314c0 2.87-.053 5.715-.218 8.108h.109a81.973 81.973 0 013.276-6.376l3.955-7.046H192v17.914h-3.818v-5.287c-.032-2.52.068-5.04.299-7.55h-.081a50.64 50.64 0 01-3.11 6.377l-3.737 6.46h-4.743V13.352h3.814zm2.565-4.094c.028 1.04.327 1.622 1.212 1.622s1.172-.583 1.285-1.622h2.783c-.17 2.287-1.693 3.271-4.121 3.271-2.428 0-3.765-1.039-3.983-3.27h2.824zM96.056 50.424a199.44 199.44 0 01-.161-7.365h-.08a94.766 94.766 0 01-2.05 6.94l-2.237 6.986h-3.232l-1.98-6.935a85.253 85.253 0 01-1.66-6.991h-.057c-.109 2.42-.19 5.184-.327 7.416l-.327 6.806h-3.846l1.171-17.918h5.54l1.801 5.983c.57 2.07 1.143 4.302 1.555 6.408h.081c.517-2.074 1.144-4.444 1.745-6.436l1.968-5.955h5.425l1.01 17.918h-4.064l-.275-6.857zm10.088-11.061l2.671 6.298c.492 1.275.872 2.338 1.284 3.428h.081c.246-.787.545-1.968 1.01-3.48l1.992-6.25h4.363l-3.438 8.695c-1.115 2.79-2.263 5.51-3.636 7.152a5.921 5.921 0 01-2.148 1.758c-.85.41-1.788.618-2.736.604a5.743 5.743 0 01-2.049-.291l.299-3.244a5.89 5.89 0 001.366.134 2.721 2.721 0 001.506-.462c.442-.3.782-.721.974-1.211a.808.808 0 00-.052-.827l-6.193-12.308 4.706.004zm12.568 1.145a11.328 11.328 0 015.729-1.437c4.04 0 6.411 1.968 6.411 4.602 0 2.232-1.555 3.716-3.684 4.224v.055c2.29.29 4.31 1.83 4.31 4.25 0 3.988-4.145 5.37-7.578 5.37-1.911 0-3.988-.394-5.515-1.248l.877-3.11a11.111 11.111 0 004.444 1.063c2.1 0 3.381-.854 3.381-2.338 0-1.996-2.125-2.393-3.846-2.393h-1.745v-2.98h1.721c1.882 0 3.296-.846 3.296-2.256 0-1.18-1.006-1.968-2.779-1.968a9.994 9.994 0 00-4.04 1.067l-.982-2.9zm26.167 9.199h-6.767v4.251h7.559v3.323h-11.728V39.367h11.344v3.322h-7.175v3.72h6.767v3.298zm7.288-10.344v5.318c0 2.87-.057 5.715-.223 8.108h.114a80.667 80.667 0 013.272-6.38l3.955-7.046h4.254V57.28h-3.818v-5.29a72.278 72.278 0 01.299-7.547h-.081a52.22 52.22 0 01-3.11 6.377l-3.737 6.46h-4.747V39.363h3.822zm2.561-4.09c.028 1.035.327 1.622 1.212 1.622s1.176-.587 1.281-1.622h2.787c-.166 2.287-1.693 3.267-4.121 3.267-2.428 0-3.765-1.035-3.983-3.267h2.824z" fill="#05171D"/><path d="M80.726 61.617h1.434l3.371 8.023h.116l3.371-8.023h1.434v9.665h-1.124v-7.343h-.097l-3.1 7.343h-1.084l-3.1-7.343h-.097v7.343h-1.124v-9.665zM93.441 74a2.6 2.6 0 01-.518-.047 1.396 1.396 0 01-.315-.085l.29-.982c.279.07.524.095.737.076a.891.891 0 00.567-.279c.168-.163.32-.429.46-.797l.213-.566-2.751-7.287h1.24l2.053 5.776h.078l2.053-5.776h1.24L95.63 72.34a3.116 3.116 0 01-.527.93c-.21.248-.454.432-.732.552-.274.12-.584.179-.93.179zm6.856 0v-9.967h1.104v1.152h.136c.084-.126.2-.287.349-.481.151-.199.368-.375.649-.53.284-.156.668-.235 1.152-.235.627 0 1.179.153 1.657.458.478.305.85.737 1.118 1.297.268.56.402 1.221.402 1.983 0 .767-.134 1.432-.402 1.996-.268.56-.639.994-1.114 1.302-.474.305-1.021.458-1.641.458-.478 0-.861-.077-1.148-.231a2.11 2.11 0 01-.664-.534 7.122 7.122 0 01-.358-.5h-.097V74h-1.143zm1.124-6.342c0 .547.082 1.03.247 1.448.164.416.405.741.721.977.317.233.704.35 1.163.35.477 0 .876-.123 1.196-.369.323-.248.565-.582.726-1 .165-.422.247-.89.247-1.406 0-.51-.08-.97-.242-1.378a2.136 2.136 0 00-.721-.977c-.32-.242-.722-.364-1.206-.364-.465 0-.856.115-1.172.345a2.066 2.066 0 00-.717.953c-.162.406-.242.88-.242 1.42zm11.255 2.114l2.596-5.739h1.085l-3.216 7.249h-.93l-3.157-7.249h1.065l2.557 5.739zm-2.925-5.739v7.249h-1.143v-7.249h1.143zm5.851 7.249v-7.249h1.143v7.249h-1.143zm5.424.17a3.09 3.09 0 01-1.283-.26 2.186 2.186 0 01-.916-.76c-.226-.333-.339-.736-.339-1.208 0-.415.084-.752.252-1.01.168-.26.392-.465.673-.613a3.6 3.6 0 01.93-.33c.343-.076.686-.136 1.032-.18a49.16 49.16 0 011.099-.127c.284-.032.491-.084.62-.156.133-.072.199-.198.199-.377v-.038c0-.466-.131-.828-.392-1.085-.259-.259-.651-.387-1.177-.387-.546 0-.974.116-1.284.349-.31.233-.528.481-.654.745l-1.085-.377c.194-.44.452-.784.775-1.029a2.938 2.938 0 011.066-.519c.387-.1.768-.151 1.143-.151.239 0 .513.028.823.085.313.053.615.165.906.335.294.17.538.426.731.77.194.342.291.801.291 1.377v4.776h-1.143V70.3h-.058a1.975 1.975 0 01-.388.505c-.181.18-.421.332-.721.458-.301.126-.667.189-1.1.189zm.175-1c.452 0 .833-.087 1.143-.26.313-.173.548-.397.707-.67a1.68 1.68 0 00.242-.864v-1.02c-.049.057-.155.11-.32.156a5.511 5.511 0 01-.562.118 26.37 26.37 0 01-1.094.142c-.297.038-.575.1-.833.184a1.442 1.442 0 00-.62.373c-.155.163-.233.387-.233.67 0 .387.147.68.441.878.297.195.673.292 1.129.292zm10.3-3.304v1.038h-4.107v-1.038h4.107zm-3.836-3.115v7.249h-1.143v-7.249h1.143zm4.708 0v7.249h-1.143v-7.249h1.143zm5.109 7.4c-.697 0-1.298-.16-1.801-.482a3.165 3.165 0 01-1.163-1.326c-.271-.563-.406-1.206-.406-1.93 0-.736.138-1.385.416-1.949a3.237 3.237 0 011.172-1.326c.504-.32 1.091-.481 1.763-.481.523 0 .995.094 1.414.283.42.189.764.453 1.032.793s.434.736.499 1.19h-1.143c-.087-.331-.281-.624-.581-.879-.297-.258-.698-.387-1.202-.387-.445 0-.836.114-1.172.34a2.23 2.23 0 00-.779.949c-.184.406-.276.882-.276 1.43 0 .56.09 1.047.271 1.463.184.415.442.737.775.967.335.23.729.344 1.181.344a2.1 2.1 0 00.809-.15 1.641 1.641 0 00.974-1.115h1.143a2.55 2.55 0 01-.48 1.157 2.66 2.66 0 01-1.002.811c-.414.199-.895.298-1.444.298zm4.597-.151v-7.249h1.143v3.153h.755l2.674-3.153h1.472l-3.003 3.492 3.042 3.757h-1.472l-2.441-3.058h-1.027v3.058h-1.143z" fill="#8B8C8C"/></svg>