<svg width="135" height="52" viewBox="0 0 135 52" fill="none" xmlns="http://www.w3.org/2000/svg"><path d="M49.343 50.154H0V2.102L51.542 0l-2.199 50.154z" fill="#B0182B"/><path d="M4.926 9.277v1.732h.122l1.267-1.732h.914l-1.5 1.82c.603.108.853.493 1.04.999.153.426.284.83.466 1.217h-.798a6.802 6.802 0 01-.344-.916c-.168-.492-.39-.83-.98-.83h-.176v1.76h-.744v-4.05h.733zm3.234 0l.7 1.558c.11.262.199.5.284.74h.02c.06-.184.133-.442.233-.76l.54-1.538h.797l-.815 2.011a7.116 7.116 0 01-.8 1.574 1.25 1.25 0 01-.452.381c-.179.09-.378.137-.58.136a1.06 1.06 0 01-.386-.055l.06-.592c.084.018.171.026.258.022a.796.796 0 00.417-.16.764.764 0 00.259-.354.211.211 0 00-.017-.216L7.295 9.277h.866zm5.946 0v4.036h-.755v-3.43h-1.137v1.076c0 .97-.093 1.845-.701 2.213a1.485 1.485 0 01-.739.196l-.09-.592a.879.879 0 00.454-.216c.284-.276.332-.915.332-1.543V9.28l2.636-.003zm1.614 0v1.45c.17-.021.34-.031.51-.03.867 0 1.623.39 1.623 1.285a1.175 1.175 0 01-.327.875c-.37.373-1.014.497-1.622.497a7.315 7.315 0 01-.934-.055V9.277h.75zm0 3.491c.127.018.257.026.386.025.517 0 .954-.246.954-.775 0-.528-.437-.746-.946-.746a2.58 2.58 0 00-.394.024v1.472zm3.584-2.874h-1.178v-.617h3.124v.617h-1.179v3.419h-.767V9.894zm2.869-.617l.7 1.558c.11.262.195.5.283.74h.04c.06-.184.133-.442.233-.76l.54-1.538h.8l-.817 2.011a7.234 7.234 0 01-.799 1.574c-.117.16-.273.29-.452.38a1.3 1.3 0 01-.582.137 1.059 1.059 0 01-.386-.055l.06-.592c.085.018.171.026.258.022a.796.796 0 00.417-.16.763.763 0 00.26-.354.21.21 0 00-.018-.216l-1.383-2.747h.846zm2.989.053a6.88 6.88 0 011.156-.083c.435-.033.868.084 1.224.329a1.15 1.15 0 01.406.893 1.2 1.2 0 01-.358.916c-.361.305-.831.46-1.31.431a2.047 2.047 0 01-.369-.024v1.52h-.75V9.33zm.75 1.88c.12.026.245.036.369.031.568 0 .909-.277.909-.741 0-.465-.318-.689-.852-.689a2.04 2.04 0 00-.438.036l.012 1.364zm3.439-1.933v1.613h1.753V9.274h.756v4.036h-.756v-1.778h-1.753v1.778h-.758V9.277h.758zm7.045 1.975c0 1.355-.852 2.127-1.988 2.127-1.137 0-1.904-.868-1.904-2.055 0-1.24.799-2.113 1.966-2.113 1.224 0 1.926.89 1.926 2.041zm-3.09.061c0 .83.423 1.472 1.136 1.472.713 0 1.136-.659 1.136-1.502 0-.761-.386-1.48-1.136-1.48-.75 0-1.136.677-1.136 1.51zm5.053.149v.51H36.79v-.51h1.568zM4.181 18.15c.363-.06.731-.089 1.1-.085.413-.037.828.053 1.187.257a.863.863 0 01.32.32.834.834 0 01.109.435.922.922 0 01-.198.546.964.964 0 01-.49.328c.237.047.45.173.602.355a.999.999 0 01.234.647 1.055 1.055 0 01-.398.83c-.284.251-.781.376-1.54.376a7.96 7.96 0 01-.926-.053v-3.955zm.75 1.591h.387c.522 0 .818-.238.818-.58 0-.344-.284-.554-.776-.554a1.982 1.982 0 00-.429.03v1.104zm0 1.856c.132.014.265.02.398.02.488 0 .917-.18.917-.678 0-.498-.417-.645-.946-.645h-.369v1.303zm3.537-3.502v1.455c.158-.025.319-.037.48-.036.852 0 1.616.396 1.616 1.3a1.18 1.18 0 01-.327.86c-.369.374-1.014.498-1.599.498a8.08 8.08 0 01-.92-.052v-4.025h.75zm0 3.491c.122.018.245.025.369.022.491 0 .934-.254.934-.777s-.488-.741-.934-.741a2.692 2.692 0 00-.37.022v1.474zm3.27-3.49v4.035h-.756v-4.036h.755zm3.891 3.916a2.69 2.69 0 01-1.068.18c-1.318 0-2.117-.802-2.117-2.03 0-1.33.95-2.133 2.213-2.133.346-.012.69.05 1.009.18l-.165.586a2.083 2.083 0 00-.813-.155c-.852 0-1.451.515-1.451 1.486 0 .885.537 1.454 1.446 1.454.282.004.562-.047.824-.149l.122.581zm1.434-3.3h-1.179v-.617h3.125v.617h-1.193v3.419h-.756l.003-3.419zm3.261 2.274l-.358 1.145h-.78l1.329-4.036h.977l1.346 4.036h-.812l-.375-1.145h-1.327zm1.188-.553l-.327-.993c-.08-.247-.148-.52-.21-.756-.063.236-.123.515-.196.756l-.321.993h1.054zM23.4 18.15c.364-.06.731-.089 1.1-.085.413-.037.829.053 1.187.257a.863.863 0 01.32.32.835.835 0 01.109.435.922.922 0 01-.198.546.963.963 0 01-.49.328c.237.047.45.173.602.355a.999.999 0 01.234.647 1.029 1.029 0 01-.398.83c-.284.251-.781.376-1.54.376-.309 0-.618-.017-.925-.053v-3.955zm.75 1.591h.387c.522 0 .818-.238.818-.58 0-.344-.284-.554-.776-.554a1.982 1.982 0 00-.429.03v1.104zm0 1.856c.132.014.265.02.398.02.486 0 .918-.18.918-.678 0-.498-.418-.659-.94-.659h-.376v1.317zm6.463-1.527c0 1.356-.853 2.127-1.989 2.127-1.136 0-1.906-.868-1.906-2.055 0-1.239.798-2.113 1.966-2.113 1.216 0 1.929.882 1.929 2.041zm-3.094.061c0 .83.426 1.472 1.15 1.472.725 0 1.137-.659 1.137-1.502 0-.761-.39-1.48-1.136-1.48-.747 0-1.15.678-1.15 1.51zm4.46-2.036v1.215a.663.663 0 00.193.569.7.7 0 00.58.2c.246-.005.487-.07.701-.189v-1.795h.756v4.036h-.75v-1.69h-.017a1.964 1.964 0 01-.96.23c-.66 0-1.259-.319-1.259-1.234v-1.342h.756zm3.855 0v1.619h1.752v-1.619h.756v4.036h-.756v-1.779h-1.752v1.779h-.756v-4.036h.755zm4.121 0v1.455c.158-.025.318-.037.477-.036.853 0 1.62.396 1.62 1.3.011.318-.106.627-.327.86-.37.374-1.014.498-1.6.498-.307 0-.614-.017-.92-.052v-4.025h.75zm0 3.491c.122.018.244.025.367.022.494 0 .937-.254.937-.777s-.486-.741-.937-.741a3 3 0 00-.367.022v1.474zm3.27-3.49v4.035h-.756v-4.036h.756zm1.625-.001v1.425c0 .642-.02 1.233-.052 1.773.216-.456.489-.94.759-1.383l1.093-1.81h.77v4.037h-.702v-1.43c0-.637 0-1.151.054-1.66-.213.477-.46.939-.738 1.383l-1.045 1.707h-.852v-4.042h.712zm.613-.885c.017.208.085.365.321.365s.307-.149.324-.365h.537c-.04.46-.338.694-.875.694-.537 0-.798-.246-.852-.694h.545zM4.937 26.913v3.43H6.59v-3.43h.756v3.45l.394.016-.042 1.569h-.585l-.043-.999H4.181v-4.036h.756zm5.706 2.247H9.082v1.183h1.747v.606H8.326v-4.036h2.408v.606H9.081v1.04h1.563v.6zm1.6-2.247v1.616h1.752v-1.616h.756v4.036h-.756V29.17h-1.752v1.779h-.756v-4.036h.756zm4.164.617h-1.165v-.617h3.125v.617h-1.193v3.419h-.767V27.53zm2.431-.561a6.505 6.505 0 011.157-.086c.43-.03.859.085 1.213.326a1.14 1.14 0 01.406.893 1.187 1.187 0 01-.358.916 1.86 1.86 0 01-1.31.432 2.025 2.025 0 01-.366-.025v1.521h-.75l.009-3.977zm.75 1.878c.12.025.244.035.367.03.568 0 .912-.276.912-.741 0-.465-.321-.689-.852-.689a2.037 2.037 0 00-.438.036l.011 1.364z" fill="#fff"/><path d="M56.606 9.551a24.528 24.528 0 013.952-.263c1.803 0 3.087.338 3.95 1.01.443.352.797.798 1.036 1.303a3.6 3.6 0 01.348 1.612 3.93 3.93 0 01-.277 1.614 4.018 4.018 0 01-.913 1.374c-1 .915-2.474 1.325-4.201 1.325a7.798 7.798 0 01-.997-.056v4.5h-2.898V9.552zm2.898 5.715c.322.06.65.084.977.074 1.554 0 2.514-.766 2.514-2.055 0-1.156-.827-1.848-2.273-1.848a4.96 4.96 0 00-1.207.114l-.011 3.715zm9.939-5.884l1.877 4.426c.347.896.614 1.643.901 2.41h.06c.173-.554.383-1.384.707-2.449l1.403-4.39h3.06l-2.415 6.108c-.787 1.964-1.594 3.872-2.556 5.026a4.16 4.16 0 01-1.512 1.236 4.277 4.277 0 01-1.926.423 4.023 4.023 0 01-1.437-.207l.21-2.28c.315.071.638.103.96.095a1.916 1.916 0 001.059-.326c.311-.21.55-.506.685-.85a.579.579 0 00-.036-.58l-4.355-8.647 3.315.005zm18.032 12.234c-.537.26-1.744.554-3.318.554-4.471 0-6.772-2.708-6.772-6.296 0-4.295 3.147-6.685 7.059-6.685 1.517 0 2.667.296 3.184.553l-.594 2.254a6.398 6.398 0 00-2.454-.47c-2.32 0-4.124 1.366-4.124 4.168 0 2.52 1.534 4.108 4.141 4.108.83 0 1.655-.14 2.438-.412l.44 2.226zm10.685 0c-.536.26-1.743.554-3.317.554-4.468 0-6.772-2.708-6.772-6.296 0-4.295 3.148-6.685 7.059-6.685 1.517 0 2.665.296 3.184.553l-.593 2.254a6.396 6.396 0 00-2.458-.47c-2.32 0-4.124 1.366-4.124 4.168 0 2.52 1.537 4.108 4.144 4.108.831 0 1.656-.14 2.438-.412l.44 2.226zm4.503-12.234v5.23h.25l3.568-5.23h3.548l-4.508 5.585c1.67.412 2.417 1.532 2.954 3.043.415 1.348.915 2.67 1.497 3.958h-3.147a18.981 18.981 0 01-.997-2.766c-.441-1.42-1.037-2.49-2.608-2.49h-.568v5.256h-2.898V9.382h2.909zm11.297 0v3.735c0 2.016-.037 4.016-.153 5.697h.079a56.364 56.364 0 012.301-4.48l2.778-4.952h2.994v12.589h-2.684v-3.715a50.52 50.52 0 01.21-5.306h-.057a36.556 36.556 0 01-2.187 4.482l-2.628 4.539h-3.337V9.382h2.684zm13.041 0v3.735c0 2.016-.037 4.016-.153 5.697h.076a57.943 57.943 0 012.304-4.48l2.781-4.952H135v12.589h-2.684v-3.715a50.52 50.52 0 01.21-5.306h-.057a35.536 35.536 0 01-2.187 4.482l-2.628 4.539h-3.334V9.382h2.681zm1.804-2.876c.02.73.23 1.14.852 1.14s.824-.41.903-1.14h1.957c-.119 1.607-1.19 2.298-2.897 2.298-1.707 0-2.647-.73-2.801-2.298h1.986zM67.54 35.433a139.7 139.7 0 01-.114-5.175h-.057a66.368 66.368 0 01-1.44 4.876l-1.573 4.91h-2.273l-1.392-4.874a59.889 59.889 0 01-1.167-4.913h-.04c-.077 1.702-.134 3.643-.23 5.212l-.23 4.782H56.32l.823-12.59h3.895l1.267 4.204c.4 1.454.803 3.023 1.093 4.503h.057a101.51 101.51 0 011.227-4.523l1.383-4.185h3.815l.71 12.591h-2.857l-.193-4.818zm7.093-7.773l1.877 4.426c.347.896.614 1.643.903 2.41h.057c.174-.554.384-1.384.71-2.446l1.4-4.392h3.069l-2.418 6.11c-.784 1.96-1.59 3.872-2.556 5.026a4.162 4.162 0 01-1.51 1.235 4.28 4.28 0 01-1.924.424c-.49.02-.978-.05-1.44-.205l.21-2.279c.315.069.637.1.96.094a1.913 1.913 0 001.059-.325c.31-.21.55-.506.685-.85a.566.566 0 00-.037-.581l-4.355-8.65 3.31.003zm8.837.805a7.967 7.967 0 014.028-1.01c2.84 0 4.507 1.384 4.507 3.234 0 1.568-1.093 2.611-2.59 2.968v.039c1.61.204 3.03 1.286 3.03 2.987 0 2.802-2.914 3.773-5.328 3.773-1.344 0-2.804-.277-3.877-.877l.616-2.185a7.82 7.82 0 003.125.747c1.477 0 2.377-.6 2.377-1.643 0-1.403-1.494-1.682-2.704-1.682h-1.227v-2.094h1.21c1.323 0 2.318-.595 2.318-1.585 0-.83-.708-1.383-1.955-1.383a7.03 7.03 0 00-2.84.75l-.69-2.039zm18.398 6.465H97.11v2.987h5.315v2.334h-8.247V27.663h7.977v2.334H97.11v2.614h4.758v2.318zm5.124-7.27v3.737c0 2.017-.04 4.016-.156 5.698h.079a57.31 57.31 0 012.301-4.484l2.781-4.95h2.991v12.59h-2.684v-3.717c-.023-1.77.048-3.54.21-5.303h-.057a36.59 36.59 0 01-2.187 4.481l-2.627 4.54h-3.338V27.66h2.687zm1.801-2.874c.02.728.23 1.14.852 1.14s.827-.412.901-1.14h1.96c-.117 1.607-1.191 2.296-2.898 2.296s-2.647-.727-2.8-2.296h1.985z" fill="#05171D"/><path d="M56.76 43.299h1.009l2.37 5.637h.082l2.37-5.637h1.008v6.79h-.79V44.93h-.068l-2.18 5.16h-.763l-2.18-5.16h-.067v5.16h-.79v-6.791zM65.7 52a1.807 1.807 0 01-.585-.093l.205-.69c.195.049.367.067.517.053a.626.626 0 00.398-.195c.119-.115.226-.302.324-.56l.15-.398-1.934-5.12h.871l1.444 4.058h.055l1.444-4.059h.871l-2.22 5.837c-.1.263-.224.48-.371.653a1.386 1.386 0 01-.514.388 1.623 1.623 0 01-.654.126zm4.821 0v-7.004h.777v.81h.095c.06-.089.14-.202.245-.339.107-.139.26-.263.457-.371.2-.11.47-.166.81-.166.44 0 .829.107 1.165.322.336.214.598.518.786.912.189.393.283.858.283 1.392 0 .54-.094 1.007-.283 1.403-.188.394-.45.699-.783.915a2.09 2.09 0 01-1.154.322c-.336 0-.605-.054-.807-.162a1.489 1.489 0 01-.467-.375 4.969 4.969 0 01-.252-.352h-.068V52h-.804zm.79-4.457c0 .385.058.724.174 1.018.116.292.285.52.507.687.223.163.495.245.818.245.336 0 .616-.086.84-.259.228-.174.398-.409.512-.703.115-.296.173-.625.173-.988 0-.358-.056-.68-.17-.968a1.5 1.5 0 00-.507-.687c-.225-.17-.508-.255-.848-.255-.327 0-.602.08-.824.242-.223.16-.39.383-.504.67-.114.285-.17.618-.17.998zm7.915 1.486l1.825-4.033h.763l-2.261 5.094h-.654l-2.22-5.094h.748l1.799 4.033zm-2.057-4.033v5.094h-.804v-5.094h.804zm4.113 5.094v-5.094h.804v5.094h-.804zm3.815.12c-.332 0-.633-.062-.903-.183a1.537 1.537 0 01-.644-.534 1.476 1.476 0 01-.238-.849c0-.292.06-.528.177-.71a1.23 1.23 0 01.474-.43 2.53 2.53 0 01.653-.233c.241-.053.483-.095.726-.126.318-.04.575-.07.773-.09.2-.021.345-.058.436-.109.093-.05.14-.139.14-.265v-.026c0-.328-.093-.582-.277-.763-.181-.181-.457-.272-.827-.272-.384 0-.685.082-.903.245a1.462 1.462 0 00-.46.524l-.762-.265c.136-.31.318-.55.545-.723.23-.175.479-.296.749-.365.272-.07.54-.106.804-.106.168 0 .36.02.579.06.22.037.432.116.636.235.207.12.378.3.515.54.136.242.204.565.204.97v3.355h-.804v-.69h-.04a1.41 1.41 0 01-.273.355 1.579 1.579 0 01-.507.322 2.003 2.003 0 01-.773.132zm.122-.704c.318 0 .586-.06.804-.182a1.26 1.26 0 00.497-.471c.114-.192.17-.395.17-.607v-.716c-.034.04-.109.076-.224.11a3.862 3.862 0 01-.395.082 17.517 17.517 0 01-.77.1c-.209.026-.404.07-.586.13a.995.995 0 00-.436.261c-.109.115-.163.272-.163.47 0 .273.103.478.31.618.209.137.473.205.793.205zm7.243-2.321v.73h-2.888v-.73h2.888zm-2.698-2.189v5.094h-.803v-5.094h.803zm3.31 0v5.094h-.803v-5.094h.804zm3.593 5.2c-.49 0-.912-.113-1.267-.338a2.221 2.221 0 01-.817-.932 3.087 3.087 0 01-.286-1.356c0-.518.098-.974.293-1.37.197-.398.472-.708.824-.932.354-.225.767-.338 1.24-.338.368 0 .699.066.994.2.295.132.537.317.726.556.188.239.305.517.35.836h-.803a1.21 1.21 0 00-.41-.617c-.208-.181-.49-.272-.844-.272-.313 0-.588.08-.824.239a1.565 1.565 0 00-.548.666c-.13.286-.194.62-.194 1.005 0 .394.063.736.19 1.028.13.292.312.519.545.68.237.161.514.242.831.242.21 0 .399-.035.569-.106a1.157 1.157 0 00.684-.783h.804a1.787 1.787 0 01-.337.813 1.873 1.873 0 01-.705.57c-.29.14-.629.21-1.015.21zm3.233-.106v-5.094h.803v2.216h.531l1.88-2.216h1.035l-2.111 2.454 2.138 2.64h-1.035l-1.716-2.149h-.722v2.149h-.804z" fill="#B0182B"/></svg>