<svg width="1435" height="1402" viewBox="0 0 1435 1402" fill="none" xmlns="http://www.w3.org/2000/svg"><path d="M757 384l-103.923 60v120L757 624l103.923-60V444L757 384zm111-191l-103.923 60v120L868 433l103.923-60V253L868 193zm224 0l-103.923 60v120L1092 433l103.92-60V253L1092 193zM982 0L878.077 60v120L982 240l103.92-60V60L982 0zm333 193l-103.92 60v120L1315 433l103.92-60V253L1315 193zM869 576l-103.923 60v120L869 816l103.923-60V636L869 576zm334-192l-103.92 60v120L1203 624l103.92-60V444L1203 384zM645 576l-103.923 60v120L645 816l103.923-60V636L645 576zm335-192l-103.923 60v120L980 624l103.92-60V444L980 384zm-990 634l-103.923-60V838L-10 778l103.923 60v120L-10 1018zm110 192l-103.923-60v-120L100 970l103.923 60v120L100 1210zm220 0l-103.923-60v-120L320 970l103.923 60v120L320 1210zm-110 192l-103.923-60v-120L210 1162l103.923 60v120L210 1402zm330-192l-103.923-60v-120L540 970l103.923 60v120L540 1210zM100 826L-3.923 766V646L100 586l103.923 60v120L100 826zm327 192l-103.923-60V838L427 778l103.923 60v120L427 1018zm-217 0l-103.923-60V838L210 778l103.923 60v120L210 1018z" fill="#0F053C"/></svg>