<svg width="1440" height="1305" viewBox="0 0 1440 1305" fill="none" xmlns="http://www.w3.org/2000/svg"><path d="M433 192l103.923 60v120L433 432l-103.923-60V252L433 192zM103 0l103.923 60v120L103 240-.923 180V60L103 0zm220 384l103.923 60v120L323 624l-103.923-60V444L323 384zM-7 192l103.923 60v120L-7 432l-103.923-60V252L-7 192zm550 192l103.923 60v120L543 624l-103.923-60V444L543 384zM213 192l103.923 60v120L213 432l-103.923-60V252L213 192zm691 921l-103.923-60V933L904 873l103.92 60v120L904 1113zm327 192l-103.92-60v-120l103.92-60 103.92 60v120L1231 1305zm-220-384l-103.923-60V741L1011 681l103.92 60v120L1011 921zm327 192l-103.92-60V933L1338 873l103.92 60v120L1338 1113zM792 921l-103.923-60V741L792 681l103.923 60v120L792 921zm327 192l-103.92-60V933L1119 873l103.92 60v120L1119 1113z" fill="#0F053C"/></svg>