<svg width="1435" height="1402" viewBox="0 0 1435 1402" fill="none" xmlns="http://www.w3.org/2000/svg">
<path d="M757 384L653.077 444V564L757 624L860.923 564V444L757 384Z" fill="#0F053C"/>
<path d="M868 193L764.077 253V373L868 433L971.923 373V253L868 193Z" fill="#0F053C"/>
<path d="M1092 193L988.077 253V373L1092 433L1195.92 373V253L1092 193Z" fill="#0F053C"/>
<path d="M982 0L878.077 60V180L982 240L1085.92 180V60L982 0Z" fill="#0F053C"/>
<path d="M1315 193L1211.08 253V373L1315 433L1418.92 373V253L1315 193Z" fill="#0F053C"/>
<path d="M869 576L765.077 636V756L869 816L972.923 756V636L869 576Z" fill="#0F053C"/>
<path d="M1203 384L1099.08 444V564L1203 624L1306.92 564V444L1203 384Z" fill="#0F053C"/>
<path d="M645 576L541.077 636V756L645 816L748.923 756V636L645 576Z" fill="#0F053C"/>
<path d="M980 384L876.077 444V564L980 624L1083.92 564V444L980 384Z" fill="#0F053C"/>
<path d="M-10 1018L-113.923 958V838L-10 778L93.923 838V958L-10 1018Z" fill="#0F053C"/>
<path d="M100 1210L-3.92305 1150V1030L100 970L203.923 1030V1150L100 1210Z" fill="#0F053C"/>
<path d="M320 1210L216.077 1150V1030L320 970L423.923 1030V1150L320 1210Z" fill="#0F053C"/>
<path d="M210 1402L106.077 1342V1222L210 1162L313.923 1222V1342L210 1402Z" fill="#0F053C"/>
<path d="M540 1210L436.077 1150V1030L540 970L643.923 1030V1150L540 1210Z" fill="#0F053C"/>
<path d="M100 826L-3.92305 766V646L100 586L203.923 646V766L100 826Z" fill="#0F053C"/>
<path d="M427 1018L323.077 958V838L427 778L530.923 838V958L427 1018Z" fill="#0F053C"/>
<path d="M210 1018L106.077 958V838L210 778L313.923 838V958L210 1018Z" fill="#0F053C"/>
</svg>
