<svg width="1440" height="1305" viewBox="0 0 1440 1305" fill="none" xmlns="http://www.w3.org/2000/svg">
<path d="M433 192L536.923 252L536.923 372L433 432L329.077 372L329.077 252L433 192Z" fill="#0F053C"/>
<path d="M103 2.09815e-05L206.923 60L206.923 180L103 240L-0.923081 180L-0.92306 60L103 2.09815e-05Z" fill="#0F053C"/>
<path d="M323 384L426.923 444L426.923 564L323 624L219.077 564L219.077 444L323 384Z" fill="#0F053C"/>
<path d="M-7 192L96.923 252L96.923 372L-7.00004 432L-110.923 372L-110.923 252L-7 192Z" fill="#0F053C"/>
<path d="M543 384L646.923 444L646.923 564L543 624L439.077 564L439.077 444L543 384Z" fill="#0F053C"/>
<path d="M213 192L316.923 252L316.923 372L213 432L109.077 372L109.077 252L213 192Z" fill="#0F053C"/>
<path d="M904 1113L800.077 1053V933L904 873L1007.92 933V1053L904 1113Z" fill="#0F053C"/>
<path d="M1231 1305L1127.08 1245V1125L1231 1065L1334.92 1125V1245L1231 1305Z" fill="#0F053C"/>
<path d="M1011 921L907.077 861V741L1011 681L1114.92 741V861L1011 921Z" fill="#0F053C"/>
<path d="M1338 1113L1234.08 1053V933L1338 873L1441.92 933V1053L1338 1113Z" fill="#0F053C"/>
<path d="M792 921L688.077 861V741L792 681L895.923 741V861L792 921Z" fill="#0F053C"/>
<path d="M1119 1113L1015.08 1053V933L1119 873L1222.92 933V1053L1119 1113Z" fill="#0F053C"/>
</svg>
