<svg width="192" height="74" viewBox="0 0 192 74" fill="none" xmlns="http://www.w3.org/2000/svg">
<path d="M70.177 71.3724H0V2.99156L73.3039 0L70.177 71.3724Z" fill="#8B8C8C"/>
<path d="M7.00517 13.2022V15.6663H7.17889L8.98069 13.2022H10.2815L8.14846 15.7923C9.00492 15.9458 9.36043 16.493 9.62707 17.2133C9.84522 17.8195 10.0311 18.3942 10.2896 18.9452H9.1544C8.9602 18.5227 8.79685 18.0873 8.66557 17.6423C8.42722 16.9417 8.11211 16.4615 7.27181 16.4615H7.02134V18.9649H5.96289V13.2022H7.00517Z" fill="white"/>
<path d="M11.6066 13.2022L12.6004 15.4184C12.758 15.7923 12.8832 16.1308 13.0044 16.4733H13.0327C13.1175 16.2095 13.2226 15.8435 13.364 15.3908L14.1316 13.2022H15.2668L14.1073 16.0639C13.8229 16.853 13.4403 17.6052 12.9681 18.3036C12.8021 18.5319 12.5823 18.718 12.3271 18.8461C12.0718 18.9742 11.7887 19.0406 11.5016 19.0397C11.315 19.0477 11.1285 19.021 10.9522 18.961L11.037 18.1186C11.1576 18.1444 11.2812 18.155 11.4046 18.1501C11.6206 18.1323 11.8265 18.0536 11.9973 17.9236C12.168 17.7935 12.2962 17.6179 12.3661 17.418C12.3902 17.3693 12.4006 17.3152 12.3964 17.2613C12.3921 17.2074 12.3733 17.1555 12.3419 17.1109L10.3744 13.2022H11.6066Z" fill="white"/>
<path d="M20.0621 13.2022V18.9452H18.9875V14.0643H17.3715V15.5955C17.3715 16.9771 17.2382 18.221 16.3737 18.7445C16.0555 18.9274 15.6928 19.0239 15.3233 19.024L15.194 18.1816C15.436 18.1439 15.6609 18.0371 15.8404 17.8746C16.2444 17.481 16.3131 16.5717 16.3131 15.6781V13.2062L20.0621 13.2022Z" fill="white"/>
<path d="M22.3568 13.2022V15.2648C22.598 15.2353 22.8409 15.2209 23.084 15.2215C24.3161 15.2215 25.3907 15.7766 25.3907 17.0519C25.4019 17.2789 25.3665 17.5058 25.2868 17.7193C25.207 17.9329 25.0844 18.1288 24.9261 18.2958C24.401 18.8272 23.4839 19.0043 22.6194 19.0043C22.175 19.0065 21.731 18.9802 21.2902 18.9256V13.2022H22.3568ZM22.3568 18.1698C22.5387 18.1954 22.7224 18.2072 22.9062 18.2052C23.6415 18.2052 24.2636 17.8549 24.2636 17.1031C24.2636 16.3512 23.6415 16.0403 22.9183 16.0403C22.7305 16.0377 22.5427 16.0496 22.3568 16.0757V18.1698Z" fill="white"/>
<path d="M27.4551 14.08H25.7786V13.2022H30.2224V14.08H28.5459V18.9452H27.4551V14.08Z" fill="white"/>
<path d="M31.5354 13.2022L32.5292 15.4184C32.6868 15.7923 32.808 16.1308 32.9332 16.4733H32.9898C33.0746 16.2095 33.1797 15.8435 33.321 15.3908L34.0886 13.2022H35.2279L34.0644 16.0639C33.7796 16.8522 33.3985 17.6042 32.9292 18.3036C32.7617 18.5313 32.5409 18.7168 32.2852 18.8448C32.0295 18.9728 31.7462 19.0396 31.4587 19.0397C31.272 19.0477 31.0856 19.021 30.9092 18.961L30.9941 18.1186C31.1147 18.1444 31.2383 18.155 31.3617 18.1501C31.5777 18.1323 31.7836 18.0536 31.9544 17.9236C32.1251 17.7935 32.2533 17.6179 32.3232 17.418C32.3473 17.3693 32.3577 17.3152 32.3534 17.2613C32.3492 17.2074 32.3304 17.1555 32.299 17.1109L30.3315 13.2022H31.5354Z" fill="white"/>
<path d="M35.7854 13.277C36.3289 13.1911 36.8791 13.1516 37.4296 13.1589C38.0483 13.1129 38.664 13.2786 39.1708 13.6274C39.3567 13.7852 39.5048 13.9808 39.6047 14.2005C39.7045 14.4202 39.7536 14.6586 39.7485 14.8988C39.76 15.1383 39.7207 15.3777 39.6331 15.6018C39.5455 15.826 39.4115 16.0301 39.2395 16.2017C38.7252 16.6362 38.0565 16.8567 37.3771 16.8157C37.2013 16.8199 37.0255 16.808 36.8519 16.7803V18.9452H35.7854V13.277ZM36.8519 15.9537C37.0244 15.9896 37.2009 16.0041 37.3771 15.997C38.1851 15.997 38.6699 15.6034 38.6699 14.9421C38.6699 14.2808 38.2174 13.9619 37.4579 13.9619C37.2492 13.9566 37.0406 13.9737 36.8358 14.0131L36.8519 15.9537Z" fill="white"/>
<path d="M41.7442 13.2022V15.4971H44.2368V13.1983H45.3115V18.9413H44.2368V16.4103H41.7442V18.9413H40.6656V13.2022H41.7442Z" fill="white"/>
<path d="M51.7632 16.0127C51.7632 17.9415 50.5512 19.0397 48.9352 19.0397C47.3193 19.0397 46.2285 17.8037 46.2285 16.1151C46.2285 14.3516 47.3637 13.1078 49.0241 13.1078C50.7653 13.1078 51.7632 14.3752 51.7632 16.0127ZM47.3678 16.0993C47.3678 17.2802 47.9697 18.1934 48.9837 18.1934C49.9977 18.1934 50.5997 17.2566 50.5997 16.056C50.5997 14.9736 50.0502 13.9501 48.9837 13.9501C47.9172 13.9501 47.3678 14.9145 47.3678 16.0993Z" fill="white"/>
<path d="M54.5547 16.3119V17.0362H52.3247V16.3119H54.5547Z" fill="white"/>
<path d="M5.94672 25.8298C6.46301 25.7431 6.9863 25.7023 7.51016 25.7077C8.09848 25.6549 8.68901 25.7829 9.19884 26.0738C9.38951 26.1838 9.54658 26.3414 9.65382 26.5303C9.76106 26.7192 9.81458 26.9326 9.80886 27.1484C9.80131 27.4297 9.7027 27.7015 9.52711 27.9249C9.35152 28.1483 9.10795 28.3119 8.83121 28.3923C9.16799 28.4589 9.47057 28.6374 9.68722 28.8973C9.90386 29.1572 10.0211 29.4824 10.0189 29.8172C10.0222 30.0429 9.97301 30.2663 9.87507 30.4708C9.77712 30.6753 9.63295 30.8556 9.45335 30.9981C9.04936 31.3563 8.34238 31.5334 7.26373 31.5334C6.82359 31.5342 6.38379 31.5092 5.94672 31.4586V25.8298ZM7.01325 28.0931H7.56268C8.30602 28.0931 8.72617 27.7546 8.72617 27.2665C8.72617 26.7784 8.32218 26.4793 7.62328 26.4793C7.41892 26.4715 7.2143 26.486 7.01325 26.5226V28.0931ZM7.01325 30.7344C7.20108 30.7541 7.38993 30.7633 7.57884 30.7619C8.2737 30.7619 8.88373 30.5061 8.88373 29.7975C8.88373 29.089 8.28986 28.8804 7.53844 28.8804H7.01325V30.7344Z" fill="white"/>
<path d="M12.0429 25.7511V27.8215C12.2686 27.7855 12.497 27.7684 12.7257 27.7704C13.9376 27.7704 15.0244 28.3332 15.0244 29.6204C15.0415 30.0722 14.8744 30.5123 14.5598 30.8446C14.0346 31.376 13.1175 31.5531 12.2853 31.5531C11.8479 31.5537 11.4108 31.5287 10.9764 31.4783V25.7511H12.0429ZM12.0429 30.7186C12.2167 30.7439 12.3924 30.7544 12.5681 30.7501C13.267 30.7501 13.8972 30.388 13.8972 29.644C13.8972 28.9001 13.2024 28.5891 12.5681 28.5891C12.3925 28.5882 12.2171 28.5987 12.0429 28.6206V30.7186ZM16.6928 25.7511V31.4941H15.6182V25.7511H16.6928Z" fill="white"/>
<path d="M22.2275 31.3248C21.7449 31.512 21.2276 31.5992 20.7085 31.5807C18.834 31.5807 17.6988 30.4391 17.6988 28.6914C17.6988 26.7981 19.0481 25.6566 20.8459 25.6566C21.3373 25.6392 21.8267 25.7265 22.28 25.9124L22.0457 26.7469C21.6801 26.597 21.2869 26.522 20.8903 26.5265C19.6783 26.5265 18.8259 27.2586 18.8259 28.6403C18.8259 29.8999 19.5894 30.7107 20.8822 30.7107C21.2833 30.7157 21.6814 30.6435 22.0538 30.4982L22.2275 31.3248Z" fill="white"/>
<path d="M24.2676 26.6288H22.5911V25.7511H27.035V26.6288H25.3382V31.4941H24.2636L24.2676 26.6288Z" fill="white"/>
<path d="M28.9054 29.8644L28.3964 31.4941H27.2854L29.1761 25.7511H30.5658L32.4808 31.4941H31.3253L30.7921 29.8644H28.9054ZM30.5941 29.0772L30.1295 27.6641C30.0164 27.3137 29.9195 26.9241 29.8306 26.5895C29.7417 26.9241 29.6569 27.3216 29.5518 27.6641L29.0953 29.0772H30.5941Z" fill="white"/>
<path d="M33.2806 25.8298C33.7969 25.7431 34.3202 25.7023 34.8441 25.7077C35.4324 25.6549 36.0229 25.7829 36.5328 26.0738C36.7234 26.1838 36.8805 26.3414 36.9877 26.5303C37.095 26.7192 37.1485 26.9326 37.1428 27.1484C37.1352 27.4297 37.0366 27.7015 36.861 27.9249C36.6854 28.1483 36.4419 28.3119 36.1651 28.3923C36.5019 28.4589 36.8045 28.6374 37.0211 28.8973C37.2378 29.1572 37.355 29.4824 37.3529 29.8172C37.3561 30.0429 37.3069 30.2663 37.209 30.4708C37.111 30.6753 36.9669 30.8556 36.7873 30.9981C36.3833 31.3563 35.6763 31.5334 34.5976 31.5334C34.1575 31.5342 33.7177 31.5092 33.2806 31.4586V25.8298ZM34.3472 28.0931H34.8966C35.6399 28.0931 36.0601 27.7546 36.0601 27.2665C36.0601 26.7784 35.6561 26.4793 34.9572 26.4793C34.7528 26.4715 34.5482 26.486 34.3472 26.5226V28.0931ZM34.3472 30.7344C34.535 30.7541 34.7238 30.7633 34.9128 30.7619C35.6036 30.7619 36.2177 30.5061 36.2177 29.7975C36.2177 29.089 35.6238 28.8607 34.8804 28.8607H34.3472V30.7344Z" fill="white"/>
<path d="M43.5379 28.5615C43.5379 30.4903 42.326 31.5885 40.71 31.5885C39.0941 31.5885 37.9992 30.3525 37.9992 28.6639C37.9992 26.9004 39.1345 25.6566 40.7949 25.6566C42.5239 25.6566 43.5379 26.9122 43.5379 28.5615ZM39.1385 28.6481C39.1385 29.829 39.7445 30.7422 40.7747 30.7422C41.8048 30.7422 42.3906 29.8054 42.3906 28.6048C42.3906 27.5224 41.8371 26.4989 40.7747 26.4989C39.7122 26.4989 39.1385 27.4633 39.1385 28.6481Z" fill="white"/>
<path d="M45.4811 25.7511V27.4791C45.4604 27.6255 45.4743 27.7745 45.5218 27.9148C45.5693 28.0552 45.6492 28.183 45.7552 28.2887C45.8613 28.3943 45.9908 28.4749 46.1337 28.5242C46.2767 28.5735 46.4293 28.5904 46.58 28.5734C46.9303 28.5669 47.2735 28.4749 47.5778 28.3057V25.7511H48.6524V31.4941H47.5859V29.089H47.5617C47.1435 29.312 46.6728 29.4246 46.1962 29.4157C45.2589 29.4157 44.4065 28.963 44.4065 27.6601V25.7511H45.4811Z" fill="white"/>
<path d="M50.9633 25.7511V28.0538H53.4559V25.7511H54.5305V31.4941H53.4559V28.963H50.9633V31.4941H49.8886V25.7511H50.9633Z" fill="white"/>
<path d="M56.8251 25.7511V27.8215C57.0495 27.7857 57.2765 27.7685 57.5038 27.7704C58.7158 27.7704 59.8066 28.3332 59.8066 29.6204C59.8237 30.0722 59.6567 30.5123 59.342 30.8446C58.8168 31.376 57.8998 31.5531 57.0675 31.5531C56.6301 31.5537 56.193 31.5287 55.7586 31.4783V25.7511H56.8251ZM56.8251 30.7186C56.9976 30.7436 57.172 30.7541 57.3463 30.7501C58.0492 30.7501 58.6795 30.388 58.6795 29.644C58.6795 28.9001 57.9886 28.5891 57.3463 28.5891C57.1721 28.5885 56.998 28.599 56.8251 28.6206V30.7186ZM61.4751 25.7511V31.4941H60.4005V25.7511H61.4751Z" fill="white"/>
<path d="M63.7859 25.751V27.7782C63.7859 28.6914 63.7576 29.5338 63.7132 30.3014C64.0202 29.6519 64.408 28.963 64.7918 28.3332L66.3472 25.7589H67.442V31.5019H66.4441V29.4669C66.4441 28.5615 66.4441 27.8294 66.5209 27.1051C66.217 27.7836 65.8661 28.4412 65.4705 29.0733L63.9838 31.5019H62.7719V25.751H63.7859ZM64.6585 24.4914C64.6827 24.7867 64.7797 25.011 65.115 25.011C65.4503 25.011 65.5513 24.7985 65.5756 24.4914H66.3391C66.2825 25.1449 65.8584 25.4794 65.0948 25.4794C64.3313 25.4794 63.9596 25.1291 63.8828 24.4914H64.6585Z" fill="white"/>
<path d="M7.02134 38.2999V43.1808H9.37255V38.2999H10.4472V43.2084L11.0087 43.232L10.9481 45.4639H10.1159L10.0553 44.0429H5.94672V38.2999H7.02134Z" fill="white"/>
<path d="M15.1375 41.4961H12.9155V43.1808H15.4001V44.0429H11.8409V38.2999H15.2668V39.1619H12.9155V40.6419H15.1375V41.4961Z" fill="white"/>
<path d="M17.4119 38.2999V40.5986H19.9046V38.2999H20.9792V44.0429H19.9046V41.5119H17.4119V44.0429H16.3373V38.2999H17.4119Z" fill="white"/>
<path d="M23.3344 39.1777H21.6781V38.2999H26.122V39.1777H24.4252V44.0429H23.3344V39.1777Z" fill="white"/>
<path d="M26.7926 38.3786C27.3357 38.289 27.8861 38.2481 28.4368 38.2566C29.0496 38.2128 29.6591 38.3769 30.1618 38.721C30.3489 38.878 30.4977 39.0735 30.5976 39.2934C30.6976 39.5133 30.746 39.7521 30.7395 39.9925C30.752 40.2321 30.7132 40.4717 30.6255 40.696C30.5379 40.9203 30.4034 41.1244 30.2305 41.2954C29.7163 41.7299 29.0475 41.9504 28.3681 41.9094C28.1937 41.9135 28.0192 41.9017 27.847 41.874V44.0389H26.7805L26.7926 38.3786ZM27.8591 41.0513C28.0302 41.0873 28.2054 41.1018 28.3803 41.0946C29.1882 41.0946 29.6771 40.701 29.6771 40.0397C29.6771 39.3784 29.2206 39.0596 28.4651 39.0596C28.2564 39.0542 28.0478 39.0714 27.8429 39.1107L27.8591 41.0513Z" fill="white"/>
<path d="M80.507 13.5919C82.3663 13.316 84.2459 13.1909 86.1265 13.218C88.6918 13.218 90.5179 13.6982 91.746 14.6547C92.3743 15.1565 92.8777 15.7905 93.2185 16.5091C93.5592 17.2277 93.7284 18.0121 93.7134 18.8035C93.7448 19.5873 93.6108 20.369 93.3197 21.1002C93.0285 21.8314 92.5864 22.4967 92.0207 23.0547C90.5987 24.3576 88.5019 24.9402 86.0457 24.9402C85.5718 24.9443 85.0981 24.918 84.6277 24.8614V31.2658H80.507V13.5919ZM84.6277 21.7242C85.0856 21.8089 85.5516 21.8445 86.0174 21.8305C88.2272 21.8305 89.5927 20.7402 89.5927 18.9059C89.5927 17.2605 88.4171 16.2765 86.3608 16.2765C85.7838 16.2597 85.2069 16.314 84.6439 16.4378L84.6277 21.7242Z" fill="#05171D"/>
<path d="M98.7633 13.3518L101.434 19.6498C101.927 20.9252 102.306 21.988 102.714 23.0783H102.799C103.046 22.2911 103.345 21.1102 103.805 19.5947L105.801 13.3479H110.152L106.718 22.0391C105.599 24.8339 104.451 27.5499 103.082 29.1913C102.52 29.9363 101.782 30.5394 100.932 30.9503C100.082 31.3611 99.1427 31.5678 98.1937 31.5531C97.4993 31.5795 96.8061 31.4794 96.1495 31.2579L96.4484 28.0144C96.8961 28.1142 97.3548 28.1592 97.8139 28.1482C98.3521 28.145 98.8768 27.9835 99.3194 27.6851C99.7619 27.3866 100.102 26.965 100.294 26.4753C100.359 26.3448 100.389 26.2001 100.38 26.0553C100.37 25.9105 100.323 25.7704 100.242 25.6487L94.0487 13.3439L98.7633 13.3518Z" fill="#05171D"/>
<path d="M124.409 30.7619C123.645 31.1319 121.928 31.5492 119.69 31.5492C113.331 31.5492 110.059 27.6956 110.059 22.5902C110.059 16.4772 114.535 13.0763 120.098 13.0763C122.255 13.0763 123.891 13.4975 124.627 13.8635L123.782 17.0716C122.677 16.6216 121.49 16.394 120.292 16.4024C116.991 16.4024 114.426 18.3469 114.426 22.3344C114.426 25.9203 116.607 28.1797 120.316 28.1797C121.498 28.1794 122.67 27.981 123.782 27.5932L124.409 30.7619Z" fill="#05171D"/>
<path d="M139.607 30.7619C138.843 31.1319 137.126 31.5492 134.888 31.5492C128.533 31.5492 125.257 27.6956 125.257 22.5902C125.257 16.4772 129.733 13.0763 135.296 13.0763C137.453 13.0763 139.085 13.4975 139.825 13.8635L138.98 17.0716C137.874 16.6211 136.685 16.3935 135.486 16.4024C132.185 16.4024 129.62 18.3469 129.62 22.3344C129.62 25.9203 131.806 28.1797 135.514 28.1797C136.696 28.1794 137.868 27.981 138.98 27.5932L139.607 30.7619Z" fill="#05171D"/>
<path d="M146.01 13.3518V20.7953H146.365L151.439 13.3518H156.485L150.074 21.2991C152.449 21.8856 153.512 23.4798 154.275 25.629C154.866 27.5473 155.577 29.4284 156.404 31.2618H151.928C151.355 29.9864 150.881 28.6706 150.51 27.3256C149.884 25.3062 149.036 23.7829 146.802 23.7829H145.994V31.2618H141.873V13.3518H146.01Z" fill="#05171D"/>
<path d="M162.077 13.3518V18.6658C162.077 21.5353 162.024 24.3812 161.858 26.7745H161.971C162.921 24.6764 164.149 22.3108 165.244 20.3977L169.195 13.3518H173.453V31.2658H169.635V25.9794C169.603 23.4594 169.703 20.9396 169.934 18.4296H169.853C168.964 20.6207 167.925 22.7511 166.743 24.8063L163.006 31.2658H158.259V13.3518H162.077Z" fill="#05171D"/>
<path d="M180.624 13.3518V18.6658C180.624 21.5353 180.571 24.3812 180.406 26.7745H180.515C181.472 24.6725 182.696 22.3108 183.791 20.3977L187.746 13.3518H192V31.2658H188.182V25.9794C188.15 23.4595 188.25 20.9396 188.481 18.4296H188.4C187.515 20.6224 186.476 22.7531 185.29 24.8063L181.553 31.2658H176.81V13.3518H180.624ZM183.189 9.25809C183.217 10.2973 183.516 10.8798 184.401 10.8798C185.286 10.8798 185.573 10.2973 185.686 9.25809H188.469C188.299 11.5451 186.776 12.5291 184.348 12.5291C181.92 12.5291 180.583 11.49 180.365 9.25809H183.189Z" fill="#05171D"/>
<path d="M96.0565 50.4236C95.9758 48.2665 95.895 45.6646 95.895 43.0588H95.8142C95.2405 45.3458 94.477 47.8965 93.7659 49.9984L91.5278 56.9853H88.2959L86.3164 50.0496C85.7185 47.9516 85.1044 45.4009 84.656 43.0588H84.5994C84.4903 45.4796 84.4095 48.2429 84.2722 50.4747L83.945 57.2805H80.099L81.2705 39.3627H86.8092L88.611 45.3458C89.1807 47.4162 89.7543 49.6481 90.1664 51.754H90.2472C90.7643 49.6796 91.3905 47.31 91.9924 45.3182L93.9599 39.3627H99.3854L100.395 57.2805H96.3313L96.0565 50.4236Z" fill="#05171D"/>
<path d="M106.144 39.3627L108.815 45.6607C109.307 46.936 109.687 47.9988 110.099 49.0892H110.18C110.426 48.3019 110.725 47.121 111.19 45.6095L113.182 39.3587H117.545L114.107 48.0539C112.992 50.8447 111.844 53.5647 110.471 55.2061C109.909 55.9503 109.172 56.5529 108.323 56.9637C107.473 57.3745 106.535 57.5816 105.587 57.5679C104.891 57.5956 104.197 57.4968 103.538 57.2766L103.837 54.0331C104.285 54.1307 104.744 54.1757 105.203 54.1669C105.741 54.1642 106.266 54.003 106.709 53.7045C107.151 53.4059 107.491 52.984 107.683 52.494C107.75 52.364 107.781 52.219 107.772 52.0738C107.762 51.9286 107.714 51.7884 107.631 51.6674L101.438 39.3587L106.144 39.3627Z" fill="#05171D"/>
<path d="M118.712 40.5081C120.453 39.533 122.433 39.0365 124.441 39.0714C128.481 39.0714 130.852 41.0395 130.852 43.6729C130.852 45.9047 129.297 47.3887 127.168 47.8965V47.9516C129.458 48.2429 131.478 49.782 131.478 52.2028C131.478 56.1902 127.333 57.5718 123.9 57.5718C121.989 57.5718 119.912 57.1782 118.385 56.324L119.262 53.2144C120.649 53.8716 122.164 54.2339 123.706 54.2772C125.806 54.2772 127.087 53.423 127.087 51.939C127.087 49.9433 124.962 49.5458 123.241 49.5458H121.496V46.566H123.217C125.099 46.566 126.513 45.7197 126.513 44.3105C126.513 43.1297 125.507 42.3424 123.734 42.3424C122.324 42.4102 120.946 42.774 119.694 43.4091L118.712 40.5081Z" fill="#05171D"/>
<path d="M144.879 49.7072H138.112V53.9583H145.671V57.2805H133.943V39.3666H145.287V42.6888H138.112V46.4086H144.879V49.7072Z" fill="#05171D"/>
<path d="M152.167 39.3627V44.6806C152.167 47.5501 152.11 50.396 151.944 52.7892H152.058C153.011 50.6873 154.235 48.3216 155.33 46.4086L159.285 39.3627H163.539V57.2805H159.721V51.9902C159.689 49.4716 159.789 46.9531 160.02 44.4444H159.939C159.05 46.6351 158.01 48.7655 156.829 50.8211L153.092 57.2805H148.345V39.3627H152.167ZM154.728 35.2729C154.756 36.3081 155.055 36.8946 155.94 36.8946C156.825 36.8946 157.116 36.3081 157.221 35.2729H160.008C159.842 37.5598 158.315 38.54 155.887 38.54C153.459 38.54 152.122 37.5047 151.904 35.2729H154.728Z" fill="#05171D"/>
<path d="M80.7264 61.6172H82.1601L85.531 69.6396H85.6472L89.0181 61.6172H90.4518V71.2818H89.3281V63.939H89.2312L86.1315 71.2818H85.0466L81.947 63.939H81.8501V71.2818H80.7264V61.6172Z" fill="#8B8C8C"/>
<path d="M93.4413 74C93.2475 74 93.0748 73.9843 92.923 73.9528C92.7713 73.9245 92.6663 73.8962 92.6082 73.8679L92.8988 72.8863C93.1765 72.9555 93.4219 72.9807 93.635 72.9618C93.8481 72.9429 94.037 72.8501 94.2017 72.6834C94.3696 72.5198 94.5229 72.254 94.6618 71.8859L94.8749 71.3196L92.1239 64.0334H93.3638L95.4173 69.8095H95.4948L97.5484 64.0334H98.7883L95.6304 72.3389C95.4884 72.7133 95.3124 73.0232 95.1025 73.2685C94.8926 73.5171 94.6489 73.7011 94.3712 73.8207C94.0967 73.9402 93.7868 74 93.4413 74Z" fill="#8B8C8C"/>
<path d="M100.297 74V64.0334H101.401V65.1848H101.537C101.621 65.059 101.737 64.8985 101.886 64.7035C102.037 64.5053 102.254 64.3291 102.535 64.1749C102.819 64.0176 103.203 63.939 103.687 63.939C104.314 63.939 104.866 64.0916 105.344 64.3967C105.822 64.7019 106.194 65.1345 106.462 65.6945C106.73 66.2545 106.864 66.9151 106.864 67.6765C106.864 68.4441 106.73 69.1095 106.462 69.6726C106.194 70.2326 105.823 70.6668 105.348 70.9751C104.874 71.2803 104.327 71.4328 103.707 71.4328C103.229 71.4328 102.846 71.3558 102.559 71.2016C102.271 71.0443 102.05 70.8666 101.895 70.6684C101.74 70.467 101.621 70.3003 101.537 70.1681H101.44V74H100.297ZM101.421 67.6576C101.421 68.205 101.503 68.6879 101.668 69.1063C101.832 69.5216 102.073 69.8472 102.389 70.0832C102.706 70.316 103.093 70.4324 103.552 70.4324C104.029 70.4324 104.428 70.3097 104.748 70.0643C105.071 69.8158 105.313 69.4823 105.474 69.0639C105.639 68.6423 105.721 68.1736 105.721 67.6576C105.721 67.1479 105.641 66.6886 105.479 66.2796C105.321 65.8675 105.08 65.5419 104.758 65.3028C104.438 65.0606 104.036 64.9394 103.552 64.9394C103.087 64.9394 102.696 65.0543 102.38 65.2839C102.063 65.5104 101.824 65.8282 101.663 66.2372C101.501 66.643 101.421 67.1165 101.421 67.6576Z" fill="#8B8C8C"/>
<path d="M112.676 69.7717L115.272 64.0334H116.357L113.141 71.2818H112.211L109.054 64.0334H110.119L112.676 69.7717ZM109.751 64.0334V71.2818H108.608V64.0334H109.751ZM115.602 71.2818V64.0334H116.745V71.2818H115.602Z" fill="#8B8C8C"/>
<path d="M121.026 71.4517C120.555 71.4517 120.127 71.3652 119.743 71.1922C119.358 71.016 119.053 70.7627 118.827 70.4324C118.601 70.0989 118.488 69.6962 118.488 69.2243C118.488 68.809 118.572 68.4724 118.74 68.2144C118.908 67.9533 119.132 67.7488 119.413 67.601C119.694 67.4531 120.004 67.343 120.343 67.2706C120.686 67.1951 121.029 67.1354 121.375 67.0913C121.827 67.0347 122.193 66.9922 122.474 66.9639C122.758 66.9324 122.965 66.8805 123.094 66.8082C123.227 66.7358 123.293 66.61 123.293 66.4306V66.3929C123.293 65.9273 123.162 65.5655 122.901 65.3075C122.642 65.0495 122.25 64.9206 121.724 64.9206C121.178 64.9206 120.75 65.037 120.44 65.2698C120.13 65.5026 119.912 65.7511 119.786 66.0154L118.701 65.6378C118.895 65.1974 119.153 64.8545 119.476 64.6091C119.802 64.3606 120.158 64.1875 120.542 64.09C120.929 63.9893 121.31 63.939 121.685 63.939C121.924 63.939 122.198 63.9673 122.508 64.0239C122.821 64.0774 123.123 64.1891 123.414 64.359C123.708 64.5289 123.952 64.7853 124.145 65.1282C124.339 65.4711 124.436 65.9304 124.436 66.5062V71.2818H123.293V70.3003H123.235C123.157 70.4576 123.028 70.6259 122.847 70.8052C122.666 70.9845 122.426 71.1371 122.126 71.263C121.825 71.3888 121.459 71.4517 121.026 71.4517ZM121.201 70.4513C121.653 70.4513 122.034 70.3648 122.344 70.1917C122.657 70.0187 122.892 69.7953 123.051 69.5216C123.212 69.2479 123.293 68.9601 123.293 68.658V67.6387C123.244 67.6954 123.138 67.7473 122.973 67.7945C122.812 67.8385 122.624 67.8778 122.411 67.9124C122.201 67.9439 121.996 67.9722 121.796 67.9974C121.599 68.0194 121.439 68.0383 121.317 68.054C121.02 68.0918 120.742 68.1531 120.484 68.238C120.229 68.3198 120.022 68.4441 119.864 68.6108C119.709 68.7744 119.631 68.9978 119.631 69.281C119.631 69.6679 119.778 69.9605 120.072 70.1587C120.369 70.3537 120.745 70.4513 121.201 70.4513Z" fill="#8B8C8C"/>
<path d="M131.501 67.1479V68.1861H127.394V67.1479H131.501ZM127.665 64.0334V71.2818H126.522V64.0334H127.665ZM132.373 64.0334V71.2818H131.23V64.0334H132.373Z" fill="#8B8C8C"/>
<path d="M137.482 71.4328C136.785 71.4328 136.184 71.2724 135.681 70.9515C135.177 70.6306 134.79 70.1886 134.518 69.6254C134.247 69.0623 134.112 68.4189 134.112 67.6954C134.112 66.9592 134.25 66.3095 134.528 65.7464C134.809 65.1801 135.2 64.7381 135.7 64.4203C136.204 64.0994 136.791 63.939 137.463 63.939C137.986 63.939 138.458 64.0334 138.877 64.2221C139.297 64.4109 139.641 64.6752 139.909 65.0149C140.177 65.3547 140.343 65.7511 140.408 66.2041H139.265C139.178 65.8738 138.984 65.5812 138.684 65.3264C138.387 65.0684 137.986 64.9394 137.482 64.9394C137.037 64.9394 136.646 65.0527 136.31 65.2792C135.978 65.5026 135.718 65.8187 135.531 66.2277C135.347 66.6336 135.255 67.1102 135.255 67.6576C135.255 68.2176 135.345 68.7052 135.526 69.1205C135.71 69.5358 135.968 69.8582 136.301 70.0879C136.636 70.3176 137.03 70.4324 137.482 70.4324C137.779 70.4324 138.049 70.3821 138.291 70.2814C138.533 70.1807 138.738 70.036 138.906 69.8472C139.074 69.6585 139.194 69.432 139.265 69.1677H140.408C140.343 69.5956 140.183 69.9809 139.928 70.3239C139.676 70.6636 139.342 70.9342 138.926 71.1355C138.512 71.3337 138.031 71.4328 137.482 71.4328Z" fill="#8B8C8C"/>
<path d="M142.079 71.2818V64.0334H143.222V67.1857H143.977L146.651 64.0334H148.123L145.12 67.5255L148.162 71.2818H146.69L144.249 68.2239H143.222V71.2818H142.079Z" fill="#8B8C8C"/>
</svg>
