<svg width="135" height="52" viewBox="0 0 135 52" fill="none" xmlns="http://www.w3.org/2000/svg">
<path d="M49.3432 50.1536H0V2.10218L51.5418 0L49.3432 50.1536Z" fill="#B0182B"/>
<path d="M4.92551 9.27725V11.0088H5.04766L6.31455 9.27725H7.2292L5.72939 11.0973C6.33158 11.2052 6.58155 11.5896 6.76903 12.0958C6.92242 12.5218 7.05309 12.9256 7.23488 13.3129H6.43669C6.30014 13.0159 6.18529 12.71 6.09298 12.3973C5.92539 11.905 5.70382 11.5675 5.11299 11.5675H4.93688V13.3267H4.19265V9.27725H4.92551Z" fill="white"/>
<path d="M8.1609 9.27725L8.85968 10.8345C8.97046 11.0973 9.05851 11.3352 9.14373 11.5758H9.16362C9.22327 11.3905 9.29712 11.1332 9.39654 10.8152L9.93625 9.27725H10.7344L9.9192 11.2881C9.71923 11.8427 9.45022 12.3712 9.11817 12.862C9.00151 13.0224 8.84692 13.1532 8.66746 13.2432C8.48799 13.3332 8.28892 13.3799 8.08705 13.3793C7.95583 13.3849 7.82473 13.3661 7.70073 13.3239L7.76038 12.732C7.84522 12.7501 7.93209 12.7576 8.01888 12.7541C8.17072 12.7416 8.31553 12.6863 8.43559 12.5949C8.55566 12.5036 8.64577 12.3801 8.69492 12.2397C8.71184 12.2054 8.71918 12.1674 8.71619 12.1296C8.71319 12.0917 8.69998 12.0552 8.67788 12.0239L7.29453 9.27725H8.1609Z" fill="white"/>
<path d="M14.1062 9.27725V13.3129H13.3506V9.88301H12.2144V10.959C12.2144 11.9299 12.1206 12.8039 11.5127 13.1718C11.289 13.3003 11.034 13.3681 10.7742 13.3682L10.6833 12.7763C10.8534 12.7498 11.0116 12.6747 11.1378 12.5605C11.4219 12.2839 11.4701 11.645 11.4701 11.0171V9.28001L14.1062 9.27725Z" fill="white"/>
<path d="M15.7196 9.27725V10.7266C15.8892 10.7059 16.06 10.6958 16.2309 10.6962C17.0973 10.6962 17.8529 11.0862 17.8529 11.9824C17.8607 12.1419 17.8359 12.3014 17.7798 12.4514C17.7237 12.6015 17.6375 12.7392 17.5262 12.8565C17.1569 13.2299 16.5121 13.3544 15.9042 13.3544C15.5918 13.3559 15.2796 13.3374 14.9697 13.299V9.27725H15.7196ZM15.7196 12.768C15.8475 12.7859 15.9767 12.7943 16.1059 12.7929C16.6229 12.7929 17.0603 12.5467 17.0603 12.0184C17.0603 11.4901 16.6229 11.2716 16.1144 11.2716C15.9824 11.2697 15.8503 11.2781 15.7196 11.2964V12.768Z" fill="white"/>
<path d="M19.3044 9.89407H18.1256V9.27725H21.2502V9.89407H20.0713V13.3129H19.3044V9.89407Z" fill="white"/>
<path d="M22.1733 9.27725L22.8721 10.8345C22.9829 11.0973 23.0681 11.3352 23.1562 11.5758H23.1959C23.2556 11.3905 23.3294 11.1332 23.4289 10.8152L23.9686 9.27725H24.7696L23.9515 11.2881C23.7513 11.8421 23.4833 12.3705 23.1533 12.862C23.0356 13.022 22.8803 13.1524 22.7005 13.2423C22.5207 13.3323 22.3215 13.3792 22.1194 13.3793C21.9882 13.3849 21.857 13.3661 21.7331 13.3239L21.7927 12.732C21.8775 12.7501 21.9644 12.7576 22.0512 12.7541C22.203 12.7416 22.3478 12.6863 22.4679 12.5949C22.588 12.5036 22.6781 12.3801 22.7272 12.2397C22.7442 12.2054 22.7515 12.1674 22.7485 12.1296C22.7455 12.0917 22.7323 12.0552 22.7102 12.0239L21.3269 9.27725H22.1733Z" fill="white"/>
<path d="M25.1616 9.3298C25.5437 9.26942 25.9306 9.24165 26.3177 9.24682C26.7527 9.21449 27.1856 9.33089 27.542 9.57598C27.6727 9.68687 27.7768 9.82436 27.847 9.97874C27.9172 10.1331 27.9517 10.3006 27.9482 10.4694C27.9562 10.6378 27.9286 10.8059 27.867 10.9634C27.8055 11.1209 27.7112 11.2644 27.5903 11.385C27.2287 11.6903 26.7585 11.8452 26.2808 11.8165C26.1572 11.8194 26.0335 11.811 25.9115 11.7916V13.3129H25.1616V9.3298ZM25.9115 11.2107C26.0328 11.2359 26.1569 11.2461 26.2808 11.2411C26.8489 11.2411 27.1897 10.9645 27.1897 10.4998C27.1897 10.0351 26.8716 9.81109 26.3376 9.81109C26.1909 9.80732 26.0441 9.81937 25.9001 9.84705L25.9115 11.2107Z" fill="white"/>
<path d="M29.3514 9.27725V10.8898H31.104V9.27448H31.8596V13.3101H31.104V11.5316H29.3514V13.3101H28.593V9.27725H29.3514Z" fill="white"/>
<path d="M36.396 11.2522C36.396 12.6075 35.5438 13.3793 34.4076 13.3793C33.2714 13.3793 32.5044 12.5107 32.5044 11.3241C32.5044 10.0849 33.3026 9.21086 34.4701 9.21086C35.6944 9.21086 36.396 10.1015 36.396 11.2522ZM33.3055 11.313C33.3055 12.1428 33.7287 12.7846 34.4417 12.7846C35.1547 12.7846 35.5779 12.1263 35.5779 11.2826C35.5779 10.522 35.1916 9.80279 34.4417 9.80279C33.6918 9.80279 33.3055 10.4805 33.3055 11.313Z" fill="white"/>
<path d="M38.3588 11.4624V11.9714H36.7908V11.4624H38.3588Z" fill="white"/>
<path d="M4.18129 18.1507C4.5443 18.0898 4.91224 18.0611 5.28058 18.0649C5.69424 18.0278 6.10946 18.1177 6.46793 18.3221C6.602 18.3994 6.71244 18.5102 6.78784 18.6429C6.86325 18.7757 6.90088 18.9256 6.89685 19.0773C6.89155 19.2749 6.82221 19.4659 6.69875 19.6229C6.57529 19.7799 6.40403 19.8948 6.20944 19.9513C6.44624 19.9981 6.659 20.1236 6.81133 20.3062C6.96365 20.4889 7.0461 20.7174 7.04456 20.9526C7.04686 21.1112 7.01227 21.2682 6.94341 21.4119C6.87454 21.5556 6.77317 21.6823 6.64689 21.7824C6.36283 22.0342 5.86574 22.1586 5.10731 22.1586C4.79784 22.1592 4.4886 22.1416 4.18129 22.1061V18.1507ZM4.93119 19.7411H5.31751C5.84017 19.7411 6.13559 19.5032 6.13559 19.1602C6.13559 18.8173 5.85154 18.607 5.36012 18.607C5.21643 18.6016 5.07256 18.6118 4.93119 18.6375V19.7411ZM4.93119 21.5971C5.06326 21.611 5.19604 21.6175 5.32887 21.6165C5.81745 21.6165 6.24637 21.4367 6.24637 20.9388C6.24637 20.4409 5.82881 20.2943 5.30047 20.2943H4.93119V21.5971Z" fill="white"/>
<path d="M8.46768 18.0953V19.5503C8.62635 19.5249 8.78695 19.5129 8.94773 19.5143C9.7999 19.5143 10.564 19.9098 10.564 20.8143C10.576 21.1318 10.4586 21.4411 10.2373 21.6746C9.86807 22.048 9.22327 22.1725 8.63811 22.1725C8.33053 22.1729 8.0232 22.1553 7.71777 22.1199V18.0953H8.46768ZM8.46768 21.5861C8.58988 21.6038 8.71344 21.6112 8.83695 21.6082C9.32837 21.6082 9.77149 21.3537 9.77149 20.8309C9.77149 20.3082 9.28292 20.0896 8.83695 20.0896C8.71349 20.089 8.59013 20.0964 8.46768 20.1118V21.5861ZM11.7372 18.0953V22.131H10.9816V18.0953H11.7372Z" fill="white"/>
<path d="M15.6287 22.012C15.2894 22.1436 14.9256 22.2048 14.5607 22.1918C13.2426 22.1918 12.4444 21.3897 12.4444 20.1616C12.4444 18.8311 13.3932 18.0289 14.6572 18.0289C15.0028 18.0168 15.3469 18.0781 15.6656 18.2087L15.5009 18.7951C15.2439 18.6898 14.9673 18.6371 14.6885 18.6402C13.8363 18.6402 13.237 19.1547 13.237 20.1256C13.237 21.0107 13.7738 21.5805 14.6828 21.5805C14.9648 21.584 15.2448 21.5333 15.5066 21.4312L15.6287 22.012Z" fill="white"/>
<path d="M17.0632 18.7122H15.8844V18.0953H19.009V18.7122H17.8159V22.131H17.0603L17.0632 18.7122Z" fill="white"/>
<path d="M20.3241 20.9858L19.9662 22.131H19.1851L20.5145 18.0953H21.4916L22.838 22.131H22.0256L21.6507 20.9858H20.3241ZM21.5115 20.4326L21.1848 19.4396C21.1053 19.1934 21.0371 18.9196 20.9746 18.6845C20.9121 18.9196 20.8525 19.199 20.7786 19.4396L20.4576 20.4326H21.5115Z" fill="white"/>
<path d="M23.4005 18.1507C23.7635 18.0898 24.1314 18.0611 24.4997 18.0649C24.9134 18.0278 25.3286 18.1177 25.6871 18.3221C25.8212 18.3994 25.9316 18.5102 26.007 18.6429C26.0824 18.7757 26.12 18.9256 26.116 19.0773C26.1107 19.2749 26.0414 19.4659 25.9179 19.6229C25.7945 19.7799 25.6232 19.8948 25.4286 19.9513C25.6654 19.9981 25.8782 20.1236 26.0305 20.3062C26.1828 20.4889 26.2653 20.7174 26.2637 20.9526C26.266 21.1112 26.2314 21.2682 26.1626 21.4119C26.0937 21.5556 25.9923 21.6823 25.8661 21.7824C25.582 22.0342 25.0849 22.1586 24.3265 22.1586C24.017 22.1592 23.7078 22.1416 23.4005 22.1061V18.1507ZM24.1504 19.7411H24.5367C25.0593 19.7411 25.3548 19.5032 25.3548 19.1602C25.3548 18.8173 25.0707 18.607 24.5793 18.607C24.4356 18.6016 24.2917 18.6118 24.1504 18.6375V19.7411ZM24.1504 21.5971C24.2824 21.611 24.4152 21.6175 24.548 21.6165C25.0338 21.6165 25.4655 21.4367 25.4655 20.9388C25.4655 20.4409 25.048 20.2805 24.5253 20.2805H24.1504V21.5971Z" fill="white"/>
<path d="M30.6126 20.0703C30.6126 21.4256 29.7604 22.1973 28.6242 22.1973C27.488 22.1973 26.7182 21.3288 26.7182 20.1422C26.7182 18.903 27.5164 18.0289 28.6839 18.0289C29.8996 18.0289 30.6126 18.9113 30.6126 20.0703ZM27.5193 20.1311C27.5193 20.9609 27.9453 21.6027 28.6697 21.6027C29.394 21.6027 29.8059 20.9443 29.8059 20.1007C29.8059 19.34 29.4167 18.6209 28.6697 18.6209C27.9226 18.6209 27.5193 19.2986 27.5193 20.1311Z" fill="white"/>
<path d="M31.9789 18.0953V19.3096C31.9643 19.4125 31.9741 19.5172 32.0075 19.6158C32.0409 19.7144 32.0971 19.8043 32.1717 19.8785C32.2462 19.9527 32.3373 20.0094 32.4378 20.044C32.5383 20.0787 32.6456 20.0905 32.7515 20.0786C32.9979 20.0741 33.2392 20.0094 33.4532 19.8905V18.0953H34.2087V22.131H33.4588V20.4409H33.4418C33.1478 20.5976 32.8168 20.6768 32.4817 20.6705C31.8227 20.6705 31.2233 20.3524 31.2233 19.4369V18.0953H31.9789Z" fill="white"/>
<path d="M35.8335 18.0953V19.7135H37.5862V18.0953H38.3418V22.131H37.5862V20.3524H35.8335V22.131H35.078V18.0953H35.8335Z" fill="white"/>
<path d="M39.9552 18.0953V19.5503C40.1129 19.5251 40.2726 19.513 40.4324 19.5143C41.2846 19.5143 42.0515 19.9098 42.0515 20.8143C42.0635 21.1318 41.9461 21.4411 41.7248 21.6746C41.3556 22.048 40.7108 22.1725 40.1256 22.1725C39.818 22.1729 39.5107 22.1553 39.2053 22.1199V18.0953H39.9552ZM39.9552 21.5861C40.0765 21.6036 40.199 21.611 40.3216 21.6082C40.8159 21.6082 41.259 21.3537 41.259 20.8309C41.259 20.3082 40.7733 20.0896 40.3216 20.0896C40.1991 20.0892 40.0767 20.0966 39.9552 20.1118V21.5861ZM43.2247 18.0953V22.131H42.4691V18.0953H43.2247Z" fill="white"/>
<path d="M44.8495 18.0953V19.5198C44.8495 20.1616 44.8296 20.7535 44.7983 21.2929C45.0142 20.8365 45.2869 20.3524 45.5567 19.9098L46.6504 18.1009H47.4201V22.1365H46.7185V20.7065C46.7185 20.0703 46.7185 19.5558 46.7725 19.0468C46.5588 19.5236 46.3121 19.9857 46.034 20.4299L44.9886 22.1365H44.1365V18.0953H44.8495ZM45.463 17.2102C45.4801 17.4177 45.5482 17.5753 45.784 17.5753C46.0198 17.5753 46.0908 17.426 46.1078 17.2102H46.6447C46.6049 17.6694 46.3067 17.9045 45.7698 17.9045C45.2329 17.9045 44.9716 17.6583 44.9176 17.2102H45.463Z" fill="white"/>
<path d="M4.93688 26.9134V30.3433H6.59007V26.9134H7.34566V30.3626L7.7405 30.3792L7.69789 31.9476H7.11274L7.07013 30.949H4.18129V26.9134H4.93688Z" fill="white"/>
<path d="M10.6435 29.1594H9.08124V30.3433H10.8282V30.949H8.32565V26.9134H10.7344V27.5192H9.08124V28.5592H10.6435V29.1594Z" fill="white"/>
<path d="M12.2428 26.9134V28.5288H13.9954V26.9134H14.751V30.949H13.9954V29.1705H12.2428V30.949H11.4872V26.9134H12.2428Z" fill="white"/>
<path d="M16.407 27.5302H15.2424V26.9134H18.367V27.5302H17.174V30.949H16.407V27.5302Z" fill="white"/>
<path d="M18.8385 26.9687C19.2204 26.9058 19.6074 26.8771 19.9946 26.883C20.4255 26.8522 20.854 26.9676 21.2076 27.2094C21.339 27.3197 21.4437 27.457 21.514 27.6116C21.5842 27.7661 21.6183 27.9339 21.6137 28.1028C21.6225 28.2712 21.5952 28.4396 21.5336 28.5972C21.472 28.7548 21.3774 28.8982 21.2558 29.0184C20.8943 29.3237 20.424 29.4787 19.9463 29.4499C19.8237 29.4527 19.701 29.4444 19.5799 29.425V30.9463H18.83L18.8385 26.9687ZM19.5884 28.8469C19.7088 28.8721 19.8319 28.8824 19.9549 28.8773C20.523 28.8773 20.8667 28.6007 20.8667 28.136C20.8667 27.6713 20.5457 27.4473 20.0145 27.4473C19.8678 27.4435 19.7211 27.4555 19.5771 27.4832L19.5884 28.8469Z" fill="white"/>
<path d="M56.6065 9.55108C57.9138 9.35718 59.2354 9.26928 60.5577 9.28831C62.3614 9.28831 63.6454 9.62576 64.5089 10.2979C64.9507 10.6505 65.3046 11.096 65.5442 11.601C65.7838 12.1059 65.9028 12.6572 65.8922 13.2133C65.9143 13.764 65.8201 14.3133 65.6154 14.8272C65.4107 15.341 65.0998 15.8085 64.7021 16.2006C63.7022 17.1162 62.2279 17.5255 60.5009 17.5255C60.1676 17.5284 59.8346 17.5099 59.5038 17.4702V21.9705H56.6065V9.55108ZM59.5038 15.2657C59.8258 15.3252 60.1535 15.3502 60.481 15.3404C62.0348 15.3404 62.9949 14.5742 62.9949 13.2852C62.9949 12.129 62.1683 11.4375 60.7224 11.4375C60.3167 11.4258 59.9111 11.4639 59.5152 11.5509L59.5038 15.2657Z" fill="#05171D"/>
<path d="M69.4429 9.38236L71.3205 13.808C71.6671 14.7042 71.9341 15.451 72.221 16.2172H72.2806C72.4539 15.664 72.6641 14.8342 72.9879 13.7693L74.3912 9.37959H77.4504L75.036 15.487C74.2491 17.4508 73.4424 19.3594 72.4795 20.5128C72.084 21.0363 71.5657 21.4601 70.9678 21.7488C70.3699 22.0375 69.7097 22.1828 69.0424 22.1724C68.5542 22.191 68.0668 22.1206 67.6051 21.965L67.8153 19.6858C68.1301 19.756 68.4526 19.7875 68.7754 19.7798C69.1538 19.7775 69.5228 19.6641 69.8339 19.4544C70.1451 19.2446 70.384 18.9484 70.5195 18.6043C70.5652 18.5126 70.5859 18.4109 70.5794 18.3091C70.5729 18.2074 70.5396 18.1089 70.4826 18.0234L66.128 9.37682L69.4429 9.38236Z" fill="#05171D"/>
<path d="M87.4747 21.6165C86.9379 21.8765 85.7307 22.1697 84.157 22.1697C79.686 22.1697 77.3851 19.4618 77.3851 15.8742C77.3851 11.5786 80.5324 9.18874 84.4439 9.18874C85.9607 9.18874 87.1112 9.4847 87.6281 9.74194L87.0345 11.9962C86.2573 11.6801 85.4225 11.5201 84.5802 11.526C82.2595 11.526 80.4557 12.8924 80.4557 15.6944C80.4557 18.2143 81.9896 19.802 84.5973 19.802C85.4279 19.8017 86.2524 19.6623 87.0345 19.3898L87.4747 21.6165Z" fill="#05171D"/>
<path d="M98.1609 21.6165C97.624 21.8765 96.4168 22.1697 94.8431 22.1697C90.375 22.1697 88.0713 19.4618 88.0713 15.8742C88.0713 11.5786 91.2186 9.18874 95.13 9.18874C96.6469 9.18874 97.7945 9.4847 98.3143 9.74194L97.7206 11.9962C96.9426 11.6797 96.1068 11.5197 95.2635 11.526C92.9428 11.526 91.1391 12.8924 91.1391 15.6944C91.1391 18.2143 92.6758 19.802 95.2834 19.802C96.1141 19.8017 96.9385 19.6623 97.7206 19.3898L98.1609 21.6165Z" fill="#05171D"/>
<path d="M102.663 9.38236V14.6129H102.913L106.481 9.38236H110.029L105.521 14.967C107.191 15.3791 107.938 16.4993 108.475 18.0096C108.89 19.3576 109.39 20.6795 109.972 21.9678H106.825C106.421 21.0715 106.088 20.1469 105.828 19.2017C105.387 17.7828 104.791 16.7123 103.22 16.7123H102.652V21.9678H99.7544V9.38236H102.663Z" fill="#05171D"/>
<path d="M113.96 9.38236V13.1165C113.96 15.1329 113.923 17.1328 113.807 18.8145H113.886C114.554 17.3402 115.417 15.6778 116.187 14.3335L118.965 9.38236H121.959V21.9705H119.275V18.2558C119.252 16.485 119.322 14.7143 119.485 12.9505H119.428C118.803 14.4902 118.072 15.9872 117.241 17.4315L114.613 21.9705H111.276V9.38236H113.96Z" fill="#05171D"/>
<path d="M127.001 9.38236V13.1165C127.001 15.1329 126.964 17.1328 126.848 18.8145H126.924C127.598 17.3374 128.458 15.6778 129.228 14.3335L132.009 9.38236H135V21.9705H132.316V18.2558C132.293 16.485 132.363 14.7143 132.526 12.9505H132.469C131.847 14.4914 131.116 15.9886 130.282 17.4315L127.654 21.9705H124.32V9.38236H127.001ZM128.805 6.50569C128.825 7.23592 129.035 7.64529 129.657 7.64529C130.279 7.64529 130.481 7.23592 130.56 6.50569H132.517C132.398 8.11275 131.327 8.80426 129.62 8.80426C127.913 8.80426 126.973 8.07402 126.819 6.50569H128.805Z" fill="#05171D"/>
<path d="M67.5398 35.4328C67.4829 33.917 67.4261 32.0886 67.4261 30.2575H67.3693C66.966 31.8646 66.4291 33.657 65.9292 35.134L64.3555 40.0437H62.0831L60.6912 35.17C60.2708 33.6957 59.839 31.9033 59.5237 30.2575H59.484C59.4073 31.9586 59.3505 33.9004 59.2539 35.4687L59.0238 40.2512H56.3196L57.1434 27.6602H61.0377L62.3046 31.8646C62.7051 33.3195 63.1085 34.8879 63.3982 36.3677H63.4551C63.8186 34.91 64.2589 33.2449 64.6822 31.8452L66.0655 27.6602H69.8804L70.5905 40.2512H67.7329L67.5398 35.4328Z" fill="#05171D"/>
<path d="M74.6326 27.6602L76.5102 32.0859C76.8568 32.9821 77.1238 33.7289 77.4135 34.4951H77.4703C77.6436 33.9419 77.8538 33.1121 78.1805 32.0499L79.5809 27.6575H82.6487L80.2313 33.7676C79.4473 35.7287 78.6406 37.6401 77.6749 38.7935C77.2795 39.3164 76.7616 39.7399 76.1643 40.0285C75.5669 40.3172 74.9074 40.4628 74.2406 40.4531C73.7517 40.4726 73.2633 40.4032 72.8005 40.2484L73.0107 37.9692C73.3257 38.0378 73.648 38.0694 73.9708 38.0633C74.3493 38.0613 74.7184 37.9481 75.0296 37.7383C75.3409 37.5285 75.5797 37.232 75.7149 36.8877C75.762 36.7963 75.7834 36.6945 75.7769 36.5924C75.7705 36.4904 75.7363 36.3918 75.678 36.3068L71.3234 27.6575L74.6326 27.6602Z" fill="#05171D"/>
<path d="M83.4696 28.4652C84.6937 27.78 86.0858 27.431 87.4975 27.4556C90.338 27.4556 92.0054 28.8386 92.0054 30.689C92.0054 32.2574 90.9118 33.3002 89.4148 33.657V33.6957C91.0254 33.9004 92.4457 34.9819 92.4457 36.683C92.4457 39.485 89.5313 40.4559 87.1168 40.4559C85.7733 40.4559 84.3132 40.1793 83.2395 39.579L83.8559 37.3939C84.8313 37.8557 85.8964 38.1103 86.9805 38.1407C88.4576 38.1407 89.358 37.5405 89.358 36.4977C89.358 35.0953 87.8639 34.816 86.6538 34.816H85.4267V32.7221H86.6368C87.9605 32.7221 88.9547 32.1274 88.9547 31.1371C88.9547 30.3073 88.2474 29.7541 87.0004 29.7541C86.0091 29.8017 85.0401 30.0574 84.1598 30.5037L83.4696 28.4652Z" fill="#05171D"/>
<path d="M101.868 34.9294H97.1099V37.9167H102.425V40.2512H94.1784V27.663H102.155V29.9975H97.1099V32.6114H101.868V34.9294Z" fill="#05171D"/>
<path d="M106.992 27.6602V31.3971C106.992 33.4136 106.952 35.4134 106.836 37.0951H106.915C107.586 35.6181 108.447 33.9557 109.216 32.6114L111.997 27.6602H114.988V40.2512H112.304V36.5336C112.281 34.7638 112.352 32.994 112.514 31.2312H112.457C111.832 32.7706 111.101 34.2676 110.27 35.7121L107.643 40.2512H104.305V27.6602H106.992ZM108.793 24.7863C108.813 25.5138 109.023 25.9259 109.645 25.9259C110.267 25.9259 110.472 25.5138 110.546 24.7863H112.506C112.389 26.3934 111.315 27.0821 109.608 27.0821C107.901 27.0821 106.961 26.3547 106.808 24.7863H108.793Z" fill="#05171D"/>
<path d="M56.7608 43.2986H57.7688L60.139 48.9359H60.2207L62.5909 43.2986H63.5989V50.0899H62.8088V44.9301H62.7407L60.5612 50.0899H59.7984L57.6189 44.9301H57.5508V50.0899H56.7608V43.2986Z" fill="#B0182B"/>
<path d="M65.7009 52C65.5647 52 65.4432 51.9889 65.3365 51.9668C65.2298 51.9469 65.156 51.927 65.1152 51.9072L65.3195 51.2174C65.5147 51.266 65.6873 51.2837 65.8371 51.2705C65.9869 51.2572 66.1198 51.192 66.2355 51.0748C66.3536 50.9599 66.4614 50.773 66.5591 50.5144L66.7089 50.1165L64.7746 44.9964H65.6464L67.0903 49.0553H67.1448L68.5887 44.9964H69.4605L67.2402 50.8327C67.1403 51.0958 67.0165 51.3136 66.869 51.486C66.7214 51.6607 66.55 51.79 66.3547 51.874C66.1618 51.958 65.9438 52 65.7009 52Z" fill="#B0182B"/>
<path d="M70.5213 52V44.9964H71.2977V45.8056H71.3931C71.4521 45.7171 71.5338 45.6044 71.6383 45.4673C71.745 45.328 71.8971 45.2042 72.0946 45.0959C72.2944 44.9854 72.5645 44.9301 72.9051 44.9301C73.3455 44.9301 73.7337 45.0373 74.0697 45.2518C74.4057 45.4662 74.668 45.7702 74.8564 46.1637C75.0448 46.5572 75.139 47.0215 75.139 47.5564C75.139 48.0959 75.0448 48.5634 74.8564 48.9592C74.668 49.3527 74.4069 49.6577 74.0732 49.8744C73.7394 50.0888 73.3546 50.1961 72.9187 50.1961C72.5827 50.1961 72.3137 50.1419 72.1116 50.0336C71.9096 49.923 71.7541 49.7981 71.6451 49.6588C71.5361 49.5174 71.4521 49.4002 71.3931 49.3073H71.325V52H70.5213ZM71.3113 47.5432C71.3113 47.9278 71.3692 48.2672 71.485 48.5612C71.6008 48.853 71.7699 49.0818 71.9924 49.2477C72.2149 49.4112 72.4874 49.493 72.8097 49.493C73.1457 49.493 73.4261 49.4068 73.6509 49.2344C73.8779 49.0597 74.0482 48.8254 74.1617 48.5314C74.2775 48.2351 74.3354 47.9057 74.3354 47.5432C74.3354 47.185 74.2786 46.8623 74.1651 46.5749C74.0538 46.2853 73.8847 46.0565 73.6577 45.8885C73.4329 45.7182 73.1503 45.6331 72.8097 45.6331C72.4828 45.6331 72.2081 45.7138 71.9856 45.8752C71.7631 46.0344 71.5951 46.2576 71.4816 46.545C71.3681 46.8302 71.3113 47.1629 71.3113 47.5432Z" fill="#B0182B"/>
<path d="M79.2256 49.0288L81.0509 44.9964H81.8137L79.5525 50.0899H78.8986L76.6783 44.9964H77.4275L79.2256 49.0288ZM77.1687 44.9964V50.0899H76.365V44.9964H77.1687ZM81.2824 50.0899V44.9964H82.0861V50.0899H81.2824Z" fill="#B0182B"/>
<path d="M85.0965 50.2093C84.7651 50.2093 84.4643 50.1485 84.1941 50.0269C83.9239 49.9031 83.7094 49.7252 83.5505 49.493C83.3915 49.2587 83.3121 48.9757 83.3121 48.6441C83.3121 48.3523 83.3711 48.1158 83.4892 47.9345C83.6072 47.751 83.765 47.6073 83.9625 47.5034C84.16 47.3995 84.378 47.3221 84.6164 47.2713C84.857 47.2182 85.0988 47.1762 85.3417 47.1453C85.6596 47.1055 85.9172 47.0756 86.1148 47.0557C86.3145 47.0336 86.4598 46.9971 86.5507 46.9463C86.6437 46.8954 86.6903 46.807 86.6903 46.681V46.6545C86.6903 46.3273 86.5983 46.0731 86.4144 45.8918C86.2328 45.7105 85.957 45.6199 85.5869 45.6199C85.2032 45.6199 84.9024 45.7016 84.6845 45.8652C84.4665 46.0288 84.3133 46.2035 84.2247 46.3892L83.4619 46.1239C83.5981 45.8144 83.7798 45.5734 84.0068 45.401C84.2361 45.2263 84.4858 45.1048 84.756 45.0362C85.0284 44.9655 85.2963 44.9301 85.5597 44.9301C85.7277 44.9301 85.9206 44.95 86.1386 44.9898C86.3588 45.0274 86.5711 45.1059 86.7754 45.2252C86.982 45.3446 87.1534 45.5248 87.2896 45.7658C87.4258 46.0067 87.494 46.3295 87.494 46.7341V50.0899H86.6903V49.4002H86.6494C86.5949 49.5107 86.5041 49.629 86.377 49.755C86.2498 49.881 86.0807 49.9882 85.8696 50.0767C85.6584 50.1651 85.4007 50.2093 85.0965 50.2093ZM85.2191 49.5063C85.537 49.5063 85.8049 49.4455 86.0228 49.3239C86.243 49.2023 86.4088 49.0454 86.52 48.853C86.6335 48.6607 86.6903 48.4584 86.6903 48.2462V47.5299C86.6562 47.5697 86.5813 47.6062 86.4655 47.6393C86.352 47.6703 86.2203 47.6979 86.0705 47.7222C85.9229 47.7444 85.7788 47.7643 85.638 47.7819C85.4995 47.7974 85.3871 47.8107 85.3008 47.8217C85.092 47.8483 84.8967 47.8914 84.7151 47.9511C84.5358 48.0085 84.3905 48.0959 84.2792 48.213C84.1702 48.328 84.1158 48.485 84.1158 48.6839C84.1158 48.9558 84.2191 49.1614 84.4257 49.3007C84.6345 49.4378 84.899 49.5063 85.2191 49.5063Z" fill="#B0182B"/>
<path d="M92.4616 47.185V47.9146H89.5738V47.185H92.4616ZM89.7645 44.9964V50.0899H88.9608V44.9964H89.7645ZM93.0746 44.9964V50.0899H92.2709V44.9964H93.0746Z" fill="#B0182B"/>
<path d="M96.6673 50.1961C96.177 50.1961 95.7547 50.0833 95.4005 49.8578C95.0463 49.6323 94.7739 49.3217 94.5832 48.926C94.3925 48.5303 94.2972 48.0782 94.2972 47.5697C94.2972 47.0524 94.3948 46.5959 94.59 46.2002C94.7875 45.8022 95.0622 45.4916 95.4141 45.2683C95.7683 45.0429 96.1815 44.9301 96.6537 44.9301C97.0215 44.9301 97.353 44.9964 97.6481 45.1291C97.9432 45.2617 98.185 45.4474 98.3735 45.6862C98.5619 45.9249 98.6788 46.2035 98.7242 46.5218H97.9205C97.8592 46.2897 97.723 46.0841 97.5119 45.905C97.303 45.7238 97.0215 45.6331 96.6673 45.6331C96.354 45.6331 96.0793 45.7127 95.8432 45.8719C95.6094 46.0288 95.4266 46.251 95.2949 46.5384C95.1655 46.8236 95.1008 47.1585 95.1008 47.5432C95.1008 47.9367 95.1644 48.2794 95.2915 48.5712C95.4209 48.863 95.6026 49.0896 95.8364 49.251C96.0725 49.4123 96.3495 49.493 96.6673 49.493C96.8762 49.493 97.0658 49.4577 97.236 49.3869C97.4063 49.3162 97.5505 49.2145 97.6685 49.0818C97.7866 48.9492 97.8706 48.79 97.9205 48.6043H98.7242C98.6788 48.905 98.5664 49.1758 98.3871 49.4168C98.21 49.6555 97.975 49.8457 97.6822 49.9871C97.3916 50.1264 97.0533 50.1961 96.6673 50.1961Z" fill="#B0182B"/>
<path d="M99.8991 50.0899V44.9964H100.703V47.2116H101.234L103.114 44.9964H104.149L102.038 47.4503L104.176 50.0899H103.141L101.425 47.9411H100.703V50.0899H99.8991Z" fill="#B0182B"/>
</svg>
