<svg width="799" height="769" viewBox="0 0 799 769" fill="none" xmlns="http://www.w3.org/2000/svg">
<path d="M569 336L672.923 396V516L569 576L465.077 516V396L569 336Z" fill="#0F053C"/>
<path d="M459 144L562.923 204V324L459 384L355.077 324V204L459 144Z" fill="#0F053C"/>
<path d="M239 144L342.923 204V324L239 384L135.077 324V204L239 144Z" fill="#0F053C"/>
<path d="M19 144L122.923 204V324L19 384L-84.923 324V204L19 144Z" fill="#0F053C"/>
<path d="M349 -49L452.923 11V131L349 191L245.077 131V11L349 -49Z" fill="#0F053C"/>
<path d="M459 529L562.923 589V709L459 769L355.077 709V589L459 529Z" fill="#0F053C"/>
<path d="M679 529L782.923 589V709L679 769L575.077 709V589L679 529Z" fill="#0F053C"/>
<path d="M129 336L232.923 396V516L129 576L25.077 516V396L129 336Z" fill="#0F053C"/>
<path d="M349 336L452.923 396V516L349 576L245.077 516V396L349 336Z" fill="#0F053C"/>
</svg>
