<svg width="1440" height="1535" viewBox="0 0 1440 1535" fill="none" xmlns="http://www.w3.org/2000/svg">
<path d="M569 336L672.923 396V516L569 576L465.077 516V396L569 336Z" fill="#0F053C"/>
<path d="M459 144L562.923 204V324L459 384L355.077 324V204L459 144Z" fill="#0F053C"/>
<path d="M239 144L342.923 204V324L239 384L135.077 324V204L239 144Z" fill="#0F053C"/>
<path d="M19 144L122.923 204V324L19 384L-84.923 324V204L19 144Z" fill="#0F053C"/>
<path d="M349 -49L452.923 11V131L349 191L245.077 131V11L349 -49Z" fill="#0F053C"/>
<path d="M459 529L562.923 589V709L459 769L355.077 709V589L459 529Z" fill="#0F053C"/>
<path d="M679 529L782.923 589V709L679 769L575.077 709V589L679 529Z" fill="#0F053C"/>
<path d="M129 336L232.923 396V516L129 576L25.077 516V396L129 336Z" fill="#0F053C"/>
<path d="M349 336L452.923 396V516L349 576L245.077 516V396L349 336Z" fill="#0F053C"/>
<path d="M910 1151L806.077 1091V971L910 911L1013.92 971V1091L910 1151Z" fill="#0F053C"/>
<path d="M1021 1342L917.077 1282V1162L1021 1102L1124.92 1162V1282L1021 1342Z" fill="#0F053C"/>
<path d="M1245 1342L1141.08 1282V1162L1245 1102L1348.92 1162V1282L1245 1342Z" fill="#0F053C"/>
<path d="M1135 1535L1031.08 1475V1355L1135 1295L1238.92 1355V1475L1135 1535Z" fill="#0F053C"/>
<path d="M1468 1342L1364.08 1282V1162L1468 1102L1571.92 1162V1282L1468 1342Z" fill="#0F053C"/>
<path d="M1022 959L918.077 899V779L1022 719L1125.92 779V899L1022 959Z" fill="#0F053C"/>
<path d="M1356 1151L1252.08 1091V971L1356 911L1459.92 971V1091L1356 1151Z" fill="#0F053C"/>
<path d="M798 959L694.077 899V779L798 719L901.923 779V899L798 959Z" fill="#0F053C"/>
<path d="M1133 1151L1029.08 1091V971L1133 911L1236.92 971V1091L1133 1151Z" fill="#0F053C"/>
</svg>
