<svg width="13" height="9" viewBox="0 0 13 9" fill="none" xmlns="http://www.w3.org/2000/svg">
<path d="M12.7758 4.03082L8.12405 0.170542C8.06494 0.117873 7.98954 0.0883789 7.91006 0.0883789L6.10645 0.0883789C5.95564 0.0883789 5.88635 0.282199 6.00048 0.383323L10.0897 3.74009L0.163038 3.74009C0.073367 3.74009 0 3.81594 0 3.90863L0 5.17268C0 5.26537 0.073367 5.34122 0.163038 5.34122L10.0877 5.34122L6.00048 8.54066C5.88635 8.64389 5.95564 8.83561 6.10645 8.83561H7.9712C8.00992 8.83561 8.04864 8.82086 8.07717 8.79347L12.7758 5.05049C12.8463 4.98707 12.9029 4.90873 12.9417 4.82078C12.9804 4.73283 13.0005 4.6373 13.0005 4.54065C13.0005 4.444 12.9804 4.34848 12.9417 4.26053C12.9029 4.17257 12.8463 4.09424 12.7758 4.03082Z" fill="#474747"/>
</svg>
