<svg width="19" height="19" viewBox="0 0 19 19" fill="none" xmlns="http://www.w3.org/2000/svg">
<path d="M9.33997 13.3097C9.35898 13.3341 9.38327 13.3539 9.41099 13.3675C9.43872 13.3811 9.46916 13.3881 9.5 13.3881C9.53084 13.3881 9.56128 13.3811 9.589 13.3675C9.61673 13.3539 9.64102 13.3341 9.66003 13.3097L12.5049 9.68665C12.6091 9.55369 12.5151 9.35682 12.3449 9.35682H10.4627V0.704545C10.4627 0.592045 10.3713 0.5 10.2595 0.5H8.73543C8.62366 0.5 8.53222 0.592045 8.53222 0.704545V9.35426H6.65508C6.48489 9.35426 6.39091 9.55114 6.49505 9.68409L9.33997 13.3097ZM18.7968 12.4148H17.2727C17.161 12.4148 17.0695 12.5068 17.0695 12.6193V16.5568H1.93048V12.6193C1.93048 12.5068 1.83904 12.4148 1.72727 12.4148H0.203209C0.0914438 12.4148 0 12.5068 0 12.6193V17.6818C0 18.1344 0.363235 18.5 0.812834 18.5H18.1872C18.6368 18.5 19 18.1344 19 17.6818V12.6193C19 12.5068 18.9086 12.4148 18.7968 12.4148Z" fill="#1C1825"/>
</svg>
