<svg width="10" height="8" viewBox="0 0 10 8" fill="none" xmlns="http://www.w3.org/2000/svg">
<path d="M5.43256 7.13131L9.29284 2.47959C9.3455 2.42049 9.375 2.34507 9.375 2.26559L9.375 0.959069C9.29284 0.660497 9.00195 0.499695 8.50195 0.999695C8.50195 0.999695 5.20286 5.45351 5.00195 5.45351C4.80105 5.45351 1.50195 1.05475 1.50195 1.05475C1.00195 0.554745 0.66992 0.499695 0.62793 0.9535L0.627786 2.32674C0.627786 2.36546 0.642533 2.40418 0.66992 2.43271L4.4129 7.13131C4.47632 7.20187 4.55465 7.25843 4.6426 7.2972C4.73055 7.33596 4.82608 7.35602 4.92273 7.35602C5.01938 7.35602 5.11491 7.33596 5.20286 7.2972C5.29081 7.25843 5.36914 7.20187 5.43256 7.13131Z" fill="#474747"/>
</svg>
