<svg width="13" height="9" viewBox="0 0 13 9" fill="none" xmlns="http://www.w3.org/2000/svg">
<path d="M12.7758 4.06895L8.12405 0.208673C8.06494 0.156005 7.98954 0.126511 7.91006 0.126511L6.10645 0.126511C5.95564 0.126511 5.88635 0.320331 6.00048 0.421454L10.0897 3.77822L0.163038 3.77822C0.073367 3.77822 0 3.85407 0 3.94676L0 5.21081C0 5.30351 0.073367 5.37935 0.163038 5.37935L10.0877 5.37935L6.00048 8.57879C5.88635 8.68202 5.95564 8.87374 6.10645 8.87374H7.9712C8.00992 8.87374 8.04864 8.85899 8.07717 8.8316L12.7758 5.08862C12.8463 5.0252 12.9029 4.94687 12.9417 4.85891C12.9804 4.77096 13.0005 4.67544 13.0005 4.57879C13.0005 4.48214 12.9804 4.38661 12.9417 4.29866C12.9029 4.21071 12.8463 4.13238 12.7758 4.06895Z" fill="#636365"/>
</svg>
