<svg width="23" height="16" viewBox="0 0 23 16" fill="none" xmlns="http://www.w3.org/2000/svg">
<path d="M1.47349 10.403C2.48804 5.4905 6.72923 2 11.5 2C16.2693 2 20.5105 5.4905 21.5265 10.403C21.5668 10.5979 21.6821 10.7688 21.8473 10.8779C22.0125 10.9871 22.2139 11.0256 22.4072 10.985C22.6005 10.9444 22.7699 10.8281 22.8782 10.6615C22.9864 10.495 23.0246 10.2919 22.9844 10.097C21.8285 4.5095 16.9938 0.5 11.5 0.5C6.00625 0.5 1.1715 4.5095 0.0156284 10.097C-0.0246146 10.2919 0.0135884 10.495 0.121833 10.6615C0.230078 10.8281 0.399498 10.9444 0.592822 10.985C0.786147 11.0256 0.98754 10.9871 1.1527 10.8779C1.31785 10.7688 1.43325 10.5979 1.47349 10.403V10.403ZM11.5 5C10.1191 5 8.79478 5.55312 7.81835 6.53769C6.84191 7.52226 6.29336 8.85761 6.29336 10.25C6.29336 11.6424 6.84191 12.9777 7.81835 13.9623C8.79478 14.9469 10.1191 15.5 11.5 15.5C12.8809 15.5 14.2052 14.9469 15.1817 13.9623C16.1581 12.9777 16.7066 11.6424 16.7066 10.25C16.7066 8.85761 16.1581 7.52226 15.1817 6.53769C14.2052 5.55312 12.8809 5 11.5 5ZM7.78097 10.25C7.78097 9.25544 8.17279 8.30161 8.87025 7.59835C9.5677 6.89509 10.5137 6.5 11.5 6.5C12.4863 6.5 13.4323 6.89509 14.1298 7.59835C14.8272 8.30161 15.219 9.25544 15.219 10.25C15.219 11.2446 14.8272 12.1984 14.1298 12.9017C13.4323 13.6049 12.4863 14 11.5 14C10.5137 14 9.5677 13.6049 8.87025 12.9017C8.17279 12.1984 7.78097 11.2446 7.78097 10.25V10.25Z" fill="#1C1825"/>
</svg>
