<svg width="48" height="48" viewBox="0 0 48 48" fill="none" xmlns="http://www.w3.org/2000/svg">
<path d="M3.88206 12.3849L24 0.769801L44.1179 12.3849V35.6151L24 47.2302L3.88206 35.6151V12.3849Z" fill="#481F7C" stroke="url(#paint0_linear_0_564)" stroke-width="1.33333"/>
<g clip-path="url(#clip0_0_564)">
<mask id="mask0_0_564" style="mask-type:luminance" maskUnits="userSpaceOnUse" x="12" y="12" width="24" height="24">
<path d="M36 12H12V36H36V12Z" fill="white"/>
</mask>
<g mask="url(#mask0_0_564)">
<path d="M27.6918 16.5687L25.7273 16.5654C23.5207 16.5654 22.0943 18.0286 22.0943 20.2933V22.0122H20.1195C20.0789 22.0122 20.0387 22.0202 20.0012 22.0357C19.9638 22.0512 19.9297 22.074 19.901 22.1026C19.8723 22.1313 19.8496 22.1654 19.8341 22.2029C19.8185 22.2403 19.8105 22.2805 19.8105 22.3211V24.8114C19.8105 24.8933 19.8431 24.9719 19.901 25.0298C19.959 25.0878 20.0375 25.1203 20.1195 25.1203H22.0946V31.404C22.0946 31.486 22.1271 31.5645 22.1851 31.6225C22.243 31.6804 22.3216 31.7129 22.4035 31.7129H24.9803C25.0623 31.7129 25.1408 31.6804 25.1988 31.6225C25.2567 31.5645 25.2892 31.486 25.2892 31.404V25.1193H27.5972C27.6378 25.1193 27.6779 25.1113 27.7154 25.0958C27.7529 25.0803 27.7869 25.0575 27.8156 25.0289C27.8443 25.0002 27.8671 24.9661 27.8826 24.9286C27.8981 24.8912 27.9061 24.851 27.9061 24.8104V22.3201C27.906 22.2382 27.8734 22.1597 27.8155 22.1018C27.7576 22.0439 27.6791 22.0113 27.5972 22.0112H25.2889V20.5551C25.2889 19.8546 25.4558 19.4993 26.368 19.4993H27.6914C27.7733 19.4992 27.8518 19.4666 27.9097 19.4087C27.9675 19.3507 28 19.2722 28 19.1903V16.8776C28 16.7958 27.9676 16.7173 27.9098 16.6594C27.852 16.6014 27.7736 16.5688 27.6918 16.5687Z" fill="white"/>
</g>
</g>
<defs>
<linearGradient id="paint0_linear_0_564" x1="21.3" y1="-10" x2="-9.25255" y2="11.3916" gradientUnits="userSpaceOnUse">
<stop stop-color="#C14FCB"/>
<stop offset="1" stop-color="#0667D9"/>
</linearGradient>
<clipPath id="clip0_0_564">
<rect width="24" height="24" fill="white" transform="translate(12 12)"/>
</clipPath>
</defs>
</svg>
