<svg width="15" height="16" viewBox="0 0 15 16" fill="none" xmlns="http://www.w3.org/2000/svg">
<path d="M12.6791 12.3964L14.8444 14.5605C14.9454 14.6651 15.0012 14.8051 15 14.9505C14.9987 15.0958 14.9404 15.2349 14.8376 15.3376C14.7349 15.4404 14.5958 15.4987 14.4505 15.5C14.3051 15.5012 14.1651 15.4454 14.0605 15.3444L11.8953 13.1791C10.4803 14.3914 8.65079 15.0085 6.79063 14.901C4.93047 14.7935 3.18426 13.9697 1.91841 12.6024C0.652558 11.2351 -0.0345236 9.43074 0.00133627 7.56782C0.0371961 5.70489 0.79321 3.92827 2.11074 2.61074C3.42827 1.29321 5.20489 0.537196 7.06782 0.501336C8.93074 0.465476 10.7351 1.15256 12.1024 2.41841C13.4697 3.68426 14.2935 5.43047 14.401 7.29063C14.5085 9.15079 13.8914 10.9803 12.6791 12.3953V12.3964ZM7.2066 13.8044C8.82384 13.8044 10.3748 13.162 11.5184 12.0184C12.662 10.8748 13.3044 9.32384 13.3044 7.7066C13.3044 6.08936 12.662 4.53835 11.5184 3.39479C10.3748 2.25123 8.82384 1.60878 7.2066 1.60878C5.58936 1.60878 4.03835 2.25123 2.89479 3.39479C1.75123 4.53835 1.10878 6.08936 1.10878 7.7066C1.10878 9.32384 1.75123 10.8748 2.89479 12.0184C4.03835 13.162 5.58936 13.8044 7.2066 13.8044V13.8044Z" fill="#1C1825"/>
</svg>
