<svg width="48" height="48" viewBox="0 0 48 48" fill="none" xmlns="http://www.w3.org/2000/svg">
<path d="M3.88206 12.3849L24 0.769801L44.1179 12.3849V35.6151L24 47.2302L3.88206 35.6151V12.3849Z" fill="white" fill-opacity="0.1" stroke="url(#paint0_linear_11_411)" stroke-width="1.33333"/>
<g clip-path="url(#clip0_11_411)">
<mask id="mask0_11_411" style="mask-type:luminance" maskUnits="userSpaceOnUse" x="12" y="12" width="24" height="24">
<path d="M36 12H12V36H36V12Z" fill="white"/>
</mask>
<g mask="url(#mask0_11_411)">
<path d="M29.3251 19.1733L29.2828 19.0662C29.2816 19.0631 29.2792 19.0607 29.2762 19.0593L29.1712 19.0116C28.3081 18.6195 27.0904 18.5229 26.0134 18.48H24.7996C24.7968 18.4801 24.7941 18.4812 24.7919 18.483C24.7897 18.4848 24.7882 18.4873 24.7876 18.4901C24.787 18.4928 24.7873 18.4957 24.7885 18.4983C24.7897 18.5009 24.7917 18.503 24.7942 18.5043L27.2863 19.6992C27.2879 19.6998 27.2893 19.7006 27.2905 19.7017C27.2917 19.7029 27.2927 19.7042 27.2934 19.7057C27.2941 19.7072 27.2945 19.7089 27.2946 19.7105C27.2946 19.7122 27.2944 19.7138 27.2938 19.7154C27.2932 19.7169 27.2924 19.7184 27.2912 19.7196C27.2901 19.7208 27.2888 19.7218 27.2873 19.7225C27.2858 19.7232 27.2841 19.7236 27.2825 19.7236C27.2808 19.7237 27.2792 19.7235 27.2776 19.7229C25.0722 19.136 22.7518 19.1351 20.5459 19.7202C20.5443 19.7208 20.5427 19.721 20.541 19.7209C20.5394 19.7209 20.5378 19.7205 20.5363 19.7198C20.5347 19.7191 20.5334 19.7181 20.5323 19.7169C20.5311 19.7157 20.5303 19.7142 20.5297 19.7127C20.5291 19.7111 20.5289 19.7095 20.5289 19.7078C20.529 19.7062 20.5294 19.7045 20.5301 19.703C20.5308 19.7015 20.5318 19.7002 20.533 19.699C20.5342 19.6979 20.5356 19.6971 20.5372 19.6965L23.1172 18.5046C23.1199 18.5033 23.122 18.5012 23.1233 18.4986C23.1246 18.496 23.125 18.493 23.1244 18.4901C23.1237 18.4872 23.1222 18.4847 23.1199 18.4828C23.1176 18.481 23.1147 18.48 23.1118 18.48H21.7996C20.7223 18.5229 19.5049 18.6195 18.6418 19.0116L18.5368 19.0593C18.5338 19.0606 18.5314 19.0631 18.5302 19.0662L18.4879 19.1733C17.6047 21.4116 17.3536 25.2114 17.6212 27.5919L17.6353 27.7167L17.7346 27.7938C19.0283 28.7357 20.5352 29.3425 22.1206 29.5599L22.2706 29.5788C22.2943 29.5817 22.3183 29.5766 22.3387 29.5642C22.3591 29.5519 22.3747 29.533 22.3831 29.5107L23.1385 27.4923C23.144 27.4775 23.1461 27.4618 23.1448 27.4461C23.1434 27.4305 23.1386 27.4153 23.1307 27.4017C23.1228 27.3882 23.1119 27.3765 23.099 27.3676C23.086 27.3587 23.0712 27.3529 23.0557 27.3504L22.8238 27.3141C21.7405 27.1593 20.7255 26.6932 19.9021 25.9725C19.8976 25.9686 19.8946 25.9633 19.8937 25.9574C19.8927 25.9516 19.8939 25.9456 19.897 25.9405C19.9 25.9354 19.9047 25.9315 19.9103 25.9296C19.916 25.9277 19.9221 25.9278 19.9276 25.9299C20.0062 25.9599 20.0929 25.9929 20.1823 26.028C20.3757 26.1093 20.5736 26.1794 20.7751 26.238C21.8007 26.4834 22.8514 26.6082 23.9059 26.61V26.5914H23.908V26.61C24.9617 26.6081 26.0116 26.4833 27.0364 26.238C27.238 26.1794 27.436 26.1093 27.6295 26.028C27.7195 25.9932 27.8056 25.9593 27.8842 25.9299C27.8897 25.9278 27.8959 25.9277 27.9015 25.9296C27.9071 25.9315 27.9118 25.9354 27.9149 25.9405C27.9179 25.9456 27.9191 25.9516 27.9181 25.9574C27.9172 25.9633 27.9142 25.9686 27.9097 25.9725C27.0856 26.6913 26.0707 27.1556 24.988 27.309L24.7561 27.3453C24.7406 27.3477 24.7257 27.3536 24.7127 27.3624C24.6997 27.3713 24.6889 27.383 24.6809 27.3965C24.673 27.4101 24.6681 27.4253 24.6668 27.441C24.6654 27.4566 24.6675 27.4724 24.673 27.4872L25.4296 29.5107C25.438 29.533 25.4536 29.5519 25.474 29.5642C25.4945 29.5766 25.5184 29.5817 25.5421 29.5788L25.6921 29.5599C27.2774 29.3425 28.7842 28.7357 30.0778 27.7938L30.1771 27.7167L30.1912 27.5919C30.4594 25.2117 30.2083 21.4116 29.3251 19.1733ZM21.4396 24.6687C21.1312 24.6969 20.8217 24.6295 20.553 24.4755C20.2844 24.3215 20.0698 24.0884 19.9383 23.808C19.8069 23.5277 19.765 23.2136 19.8185 22.9086C19.872 22.6036 20.0181 22.3225 20.2371 22.1035C20.456 21.8846 20.7371 21.7384 21.0421 21.685C21.3471 21.6315 21.6612 21.6734 21.9416 21.8048C22.2219 21.9362 22.455 22.1509 22.609 22.4195C22.763 22.6882 22.8305 22.9977 22.8022 23.3061C22.7698 23.6565 22.6158 23.9846 22.367 24.2335C22.1181 24.4823 21.79 24.6363 21.4396 24.6687ZM26.6464 24.6687C26.338 24.6969 26.0285 24.6295 25.7598 24.4755C25.4912 24.3215 25.2766 24.0884 25.1451 23.808C25.0137 23.5277 24.9718 23.2136 25.0253 22.9086C25.0788 22.6036 25.2249 22.3225 25.4439 22.1035C25.6628 21.8846 25.9439 21.7384 26.2489 21.685C26.5539 21.6315 26.868 21.6734 27.1484 21.8048C27.4287 21.9362 27.6618 22.1509 27.8158 22.4195C27.9698 22.6882 28.0373 22.9977 28.009 23.3061C27.9767 23.6563 27.8229 23.9842 27.5744 24.233C27.3258 24.4818 26.9981 24.636 26.6479 24.6687H26.6464Z" fill="white"/>
</g>
</g>
<defs>
<linearGradient id="paint0_linear_11_411" x1="21.3" y1="-10" x2="-9.25255" y2="11.3916" gradientUnits="userSpaceOnUse">
<stop stop-color="#C14FCB"/>
<stop offset="1" stop-color="#0667D9"/>
</linearGradient>
<clipPath id="clip0_11_411">
<rect width="24" height="24" fill="white" transform="translate(12 12)"/>
</clipPath>
</defs>
</svg>
