<svg width="48" height="48" viewBox="0 0 48 48" fill="none" xmlns="http://www.w3.org/2000/svg">
<path d="M3.88206 12.3849L24 0.769801L44.1179 12.3849V35.6151L24 47.2302L3.88206 35.6151V12.3849Z" fill="white" fill-opacity="0.1" stroke="url(#paint0_linear_11_396)" stroke-width="1.33333"/>
<g clip-path="url(#clip0_11_396)">
<path d="M33 18.6566C32.326 18.9432 31.6109 19.1314 30.8786 19.215C31.6508 18.7726 32.2294 18.0773 32.5071 17.2579C31.78 17.6706 30.9841 17.9604 30.1543 18.1146C29.6476 17.5982 28.9906 17.2395 28.2684 17.0851C27.5462 16.9306 26.7921 16.9874 26.1041 17.2482C25.4161 17.509 24.8257 17.9617 24.4097 18.5476C23.9937 19.1335 23.7711 19.8255 23.7709 20.534C23.7711 20.8049 23.8027 21.075 23.865 21.3393C22.3963 21.2694 20.9595 20.9045 19.6477 20.2684C18.3359 19.6322 17.1786 18.739 16.2508 17.6467C15.7783 18.4245 15.6333 19.3455 15.8455 20.2221C16.0576 21.0987 16.6109 21.8648 17.3925 22.3644C16.8069 22.3476 16.2342 22.1956 15.7232 21.9213V21.9645C15.7236 22.7809 16.0184 23.5722 16.5578 24.2046C17.0971 24.8371 17.848 25.2719 18.6835 25.4356C18.3663 25.5154 18.0398 25.5558 17.7119 25.5556C17.4778 25.5559 17.2442 25.5351 17.0141 25.4935C17.251 26.1957 17.7107 26.8096 18.3292 27.2499C18.9476 27.6901 19.6941 27.9348 20.4646 27.9499C19.1552 28.9306 17.5397 29.4621 15.8771 29.4591C15.584 29.459 15.2912 29.4433 15 29.4122C16.6889 30.451 18.6546 31.0022 20.6621 31C27.4505 31 31.1664 25.6143 31.1664 20.945L31.1552 20.4871C31.8798 19.9881 32.5047 19.3683 33 18.6574V18.6566Z" fill="white"/>
</g>
<defs>
<linearGradient id="paint0_linear_11_396" x1="21.3" y1="-10" x2="-9.25255" y2="11.3916" gradientUnits="userSpaceOnUse">
<stop stop-color="#C14FCB"/>
<stop offset="1" stop-color="#0667D9"/>
</linearGradient>
<clipPath id="clip0_11_396">
<rect width="24" height="24" fill="white" transform="translate(12 12)"/>
</clipPath>
</defs>
</svg>
