<svg width="19" height="19" viewBox="0 0 19 19" fill="none" xmlns="http://www.w3.org/2000/svg"><path d="M9.34 13.31a.204.204 0 00.249.057.204.204 0 00.071-.057l2.845-3.623a.204.204 0 00-.16-.33h-1.882V.705A.204.204 0 0010.259.5H8.735a.204.204 0 00-.203.205v8.65H6.655a.204.204 0 00-.16.33L9.34 13.31zm9.457-.895h-1.524a.204.204 0 00-.203.204v3.938H1.93v-3.938a.204.204 0 00-.203-.204H.203a.204.204 0 00-.203.204v5.063c0 .452.363.818.813.818h17.374c.45 0 .813-.366.813-.818v-5.063a.204.204 0 00-.203-.204z" fill="#1C1825"/></svg>