<svg width="23" height="16" viewBox="0 0 23 16" fill="none" xmlns="http://www.w3.org/2000/svg"><path d="M1.473 10.403C2.488 5.49 6.73 2 11.5 2s9.01 3.49 10.026 8.403a.75.75 0 00.321.475.74.74 0 001.031-.216.756.756 0 00.106-.565C21.828 4.51 16.994.5 11.5.5S1.171 4.51.016 10.097a.756.756 0 00.106.565.744.744 0 001.03.216.75.75 0 00.321-.475zM11.5 5c-1.38 0-2.705.553-3.682 1.538a5.272 5.272 0 00-1.525 3.712c0 1.392.549 2.728 1.525 3.712A5.185 5.185 0 0011.5 15.5c1.38 0 2.705-.553 3.682-1.538a5.272 5.272 0 001.525-3.712 5.272 5.272 0 00-1.525-3.712A5.185 5.185 0 0011.5 5zm-3.719 5.25c0-.995.392-1.948 1.09-2.652A3.704 3.704 0 0111.5 6.5c.986 0 1.932.395 2.63 1.098a3.766 3.766 0 011.089 2.652c0 .995-.392 1.948-1.09 2.652A3.704 3.704 0 0111.5 14a3.704 3.704 0 01-2.63-1.098 3.766 3.766 0 01-1.089-2.652z" fill="#1C1825"/></svg>