<svg width="48" height="48" viewBox="0 0 48 48" fill="none" xmlns="http://www.w3.org/2000/svg"><path d="M3.882 12.385L24 .77l20.118 11.615v23.23L24 47.23 3.882 35.615v-23.23z" fill="#fff" fill-opacity=".1" stroke="url(#paint0_linear_11_402)" stroke-width="1.333"/><g clip-path="url(#clip0_11_402)"><mask id="mask0_11_402" style="mask-type:luminance" maskUnits="userSpaceOnUse" x="12" y="12" width="24" height="24"><path d="M36 12H12v24h24V12z" fill="#fff"/></mask><g mask="url(#mask0_11_402)"><path d="M27.692 16.569l-1.965-.004c-2.206 0-3.633 1.464-3.633 3.728v1.72H20.12a.31.31 0 00-.308.308v2.49a.309.309 0 00.308.31h1.976v6.283a.309.309 0 00.309.309h2.576a.31.31 0 00.31-.309v-6.285h2.307a.31.31 0 00.31-.309v-2.49a.31.31 0 00-.31-.309H25.29v-1.456c0-.7.167-1.056 1.079-1.056h1.323A.31.31 0 0028 19.19v-2.312a.309.309 0 00-.308-.31z" fill="#fff"/></g></g><defs><linearGradient id="paint0_linear_11_402" x1="21.3" y1="-10" x2="-9.253" y2="11.392" gradientUnits="userSpaceOnUse"><stop stop-color="#C14FCB"/><stop offset="1" stop-color="#0667D9"/></linearGradient><clipPath id="clip0_11_402"><path fill="#fff" transform="translate(12 12)" d="M0 0h24v24H0z"/></clipPath></defs></svg>