<svg width="51" height="62" viewBox="0 0 51 62" fill="none" xmlns="http://www.w3.org/2000/svg"><g filter="url(#filter0_d_410_3024)"><path d="M25.5 4c-4.64.005-9.088 1.911-12.369 5.3C9.851 12.686 8.005 17.28 8 22.071c0 15.464 15.91 27.15 16.585 27.642a1.614 1.614 0 001.83 0C27.09 49.221 43 37.536 43 22.072c-.005-4.791-1.85-9.385-5.131-12.773S30.139 4.005 25.5 4zm0 11.5a6.22 6.22 0 013.535 1.108 6.53 6.53 0 012.344 2.95 6.76 6.76 0 01.362 3.796A6.642 6.642 0 0130 26.72a6.303 6.303 0 01-3.259 1.798 6.177 6.177 0 01-3.676-.373 6.413 6.413 0 01-2.856-2.42 6.726 6.726 0 01-1.073-3.652c0-1.743.67-3.414 1.864-4.647a6.263 6.263 0 014.5-1.925z" fill="red"/></g><defs><filter id="filter0_d_410_3024" x="0" y="0" width="51" height="62" filterUnits="userSpaceOnUse" color-interpolation-filters="sRGB"><feFlood flood-opacity="0" result="BackgroundImageFix"/><feColorMatrix in="SourceAlpha" values="0 0 0 0 0 0 0 0 0 0 0 0 0 0 0 0 0 0 127 0" result="hardAlpha"/><feOffset dy="4"/><feGaussianBlur stdDeviation="4"/><feComposite in2="hardAlpha" operator="out"/><feColorMatrix values="0 0 0 0 0 0 0 0 0 0 0 0 0 0 0 0 0 0 0.25 0"/><feBlend in2="BackgroundImageFix" result="effect1_dropShadow_410_3024"/><feBlend in="SourceGraphic" in2="effect1_dropShadow_410_3024" result="shape"/></filter></defs></svg>