<svg width="48" height="48" viewBox="0 0 48 48" fill="none" xmlns="http://www.w3.org/2000/svg"><path d="M3.882 12.385L24 .77l20.118 11.615v23.23L24 47.23 3.882 35.615v-23.23z" fill="#fff" fill-opacity=".1" stroke="url(#paint0_linear_11_411)" stroke-width="1.333"/><g clip-path="url(#clip0_11_411)"><mask id="mask0_11_411" style="mask-type:luminance" maskUnits="userSpaceOnUse" x="12" y="12" width="24" height="24"><path d="M36 12H12v24h24V12z" fill="#fff"/></mask><g mask="url(#mask0_11_411)"><path d="M29.325 19.173l-.042-.107a.013.013 0 00-.007-.007l-.105-.047c-.863-.393-2.08-.49-3.158-.532H24.8a.013.013 0 00-.012.01.013.013 0 00.006.014l2.492 1.195c.002 0 .003.002.005.003a.014.014 0 01.002.004l.002.005-.001.004a.012.012 0 01-.003.005.012.012 0 01-.009.004l-.004-.001a13.108 13.108 0 00-6.737-.002l-.005-.001a.012.012 0 01-.004-.003.012.012 0 01-.002-.004l-.001-.005.001-.005c0-.002.002-.003.003-.004a.013.013 0 01.004-.003l2.58-1.191a.013.013 0 00.007-.015.013.013 0 00-.004-.007.013.013 0 00-.008-.003H21.8c-1.078.043-2.295.14-3.158.532l-.105.047a.012.012 0 00-.007.007l-.042.107c-.883 2.239-1.134 6.038-.867 8.419l.014.125.1.077a9.688 9.688 0 004.386 1.766l.15.019a.106.106 0 00.112-.068l.756-2.019a.107.107 0 00-.04-.124.107.107 0 00-.043-.018l-.232-.036a5.65 5.65 0 01-2.922-1.341.025.025 0 01-.005-.032.025.025 0 01.013-.011.026.026 0 01.018 0l.254.098c.194.081.392.151.593.21 1.026.245 2.076.37 3.13.372v-.019h.003v.019a13.544 13.544 0 003.128-.372c.202-.059.4-.129.593-.21l.255-.098a.025.025 0 01.026.043 5.65 5.65 0 01-2.922 1.336l-.232.036a.107.107 0 00-.075.052.106.106 0 00-.008.09l.757 2.024a.106.106 0 00.112.068l.15-.02a9.687 9.687 0 004.386-1.765l.1-.077.013-.125c.268-2.38.017-6.18-.866-8.419zM21.44 24.67a1.507 1.507 0 11-.275-3.001 1.507 1.507 0 01.275 3zm5.206 0a1.507 1.507 0 11-.277-3.001 1.507 1.507 0 01.279 3h-.002z" fill="#fff"/></g></g><defs><linearGradient id="paint0_linear_11_411" x1="21.3" y1="-10" x2="-9.253" y2="11.392" gradientUnits="userSpaceOnUse"><stop stop-color="#C14FCB"/><stop offset="1" stop-color="#0667D9"/></linearGradient><clipPath id="clip0_11_411"><path fill="#fff" transform="translate(12 12)" d="M0 0h24v24H0z"/></clipPath></defs></svg>