<svg width="48" height="48" viewBox="0 0 48 48" fill="none" xmlns="http://www.w3.org/2000/svg"><path d="M3.882 12.385L24 .77l20.118 11.615v23.23L24 47.23 3.882 35.615v-23.23z" fill="#481F7C" stroke="url(#paint0_linear_0_558)" stroke-width="1.333"/><g clip-path="url(#clip0_0_558)"><path d="M33 18.657a7.636 7.636 0 01-2.121.558 3.594 3.594 0 001.628-1.957 7.569 7.569 0 01-2.353.857 3.734 3.734 0 00-1.886-1.03 3.847 3.847 0 00-2.164.163 3.668 3.668 0 00-1.694 1.3 3.43 3.43 0 00-.545 2.791 10.854 10.854 0 01-4.217-1.07 10.415 10.415 0 01-3.397-2.622 3.405 3.405 0 00-.406 2.575 3.539 3.539 0 001.547 2.142 3.76 3.76 0 01-1.669-.443v.044c0 .816.295 1.607.835 2.24a3.733 3.733 0 002.125 1.23 3.973 3.973 0 01-1.669.059 3.557 3.557 0 001.315 1.756c.619.44 1.365.685 2.136.7a7.637 7.637 0 01-4.588 1.51 8.559 8.559 0 01-.877-.048A10.795 10.795 0 0020.662 31c6.789 0 10.504-5.386 10.504-10.055l-.01-.458A7.273 7.273 0 0033 18.657z" fill="#fff"/></g><defs><linearGradient id="paint0_linear_0_558" x1="21.3" y1="-10" x2="-9.253" y2="11.392" gradientUnits="userSpaceOnUse"><stop stop-color="#C14FCB"/><stop offset="1" stop-color="#0667D9"/></linearGradient><clipPath id="clip0_0_558"><path fill="#fff" transform="translate(12 12)" d="M0 0h24v24H0z"/></clipPath></defs></svg>