<svg width="1440" height="695" viewBox="0 0 1440 695" fill="none" xmlns="http://www.w3.org/2000/svg">
<path d="M1330 419L1433.92 479L1433.92 599L1330 659L1226.08 599L1226.08 479L1330 419Z" fill="#0F053C"/>
<path d="M1000 227L1103.92 287L1103.92 407L1000 467L896.077 407L896.077 287L1000 227Z" fill="#0F053C"/>
<path d="M1220 611L1323.92 671L1323.92 791L1220 851L1116.08 791L1116.08 671L1220 611Z" fill="#0F053C"/>
<path d="M890 419L993.923 479L993.923 599L890 659L786.077 599L786.077 479L890 419Z" fill="#0F053C"/>
<path d="M1440 611L1543.92 671L1543.92 791L1440 851L1336.08 791L1336.08 671L1440 611Z" fill="#0F053C"/>
<path d="M1110 419L1213.92 479L1213.92 599L1110 659L1006.08 599L1006.08 479L1110 419Z" fill="#0F053C"/>
<path d="M-26 432L-129.923 372V252L-26 192L77.923 252V372L-26 432Z" fill="#0F053C"/>
<path d="M304 624L200.077 564V444L304 384L407.923 444V564L304 624Z" fill="#0F053C"/>
<path d="M84 240L-19.923 180V60L84 0L187.923 60V180L84 240Z" fill="#0F053C"/>
<path d="M414 432L310.077 372V252L414 192L517.923 252V372L414 432Z" fill="#0F053C"/>
<path d="M194 432L90.077 372V252L194 192L297.923 252V372L194 432Z" fill="#0F053C"/>
</svg>
